<?xml version="1.0" encoding="utf-8"?>
<!-- Generator: Adobe Illustrator 27.5.0, SVG Export Plug-In . SVG Version: 6.00 Build 0)  -->
<svg version="1.1" id="Layer_1" xmlns="http://www.w3.org/2000/svg" xmlns:xlink="http://www.w3.org/1999/xlink" x="0px" y="0px"
	 viewBox="0 0 750 750" style="enable-background:new 0 0 750 750;" xml:space="preserve">
<g>
	<path d="M423.408,100.849h3.648l0.73-1.459h1.459v0.73l1.094,1.824l0.365-0.73l1.459,0.365l1.824-0.73l1.824-1.824l4.013-1.094
		l0.73-1.094l0.365-1.824H438v-0.73l1.459-1.094l2.918-1.824l2.554-0.73l0.365-1.459h-1.094l-0.365,0.365l-3.648,0.365l-1.459,0.73
		v1.094l-4.742,0.365l-1.459,1.824l-1.824,0.73l-1.459,1.459l-1.824,0.73l-0.365,1.094l-4.378,0.73l-2.554,0.73l-0.365,2.189
		l1.824,0.365L423.408,100.849z M434.717,96.836h1.094v1.824l-0.547-0.182l-0.547-0.547V96.836z M431.069,97.931h2.554v0.73h-1.094
		l-1.492,0.895l-1.061-0.531L431.069,97.931z"/>
	<polygon points="92.169,362.047 91.439,360.952 92.169,359.128 91.439,358.399 89.251,359.128 85.238,361.682 81.225,364.6 
		81.225,367.154 81.59,367.519 85.238,367.154 90.345,364.235 	"/>
	<polygon points="579.178,270.846 581.002,269.022 584.65,267.928 584.65,266.104 583.921,265.739 582.461,266.104 580.273,266.104 
		575.165,264.645 574.071,265.01 572.977,266.469 572.977,268.658 573.341,269.387 574.801,271.211 577.354,271.576 	"/>
	<polygon points="152.361,252.606 152.726,253.336 155.644,252.606 155.28,256.619 156.739,256.984 157.468,255.525 
		158.928,253.701 160.022,253.336 160.022,254.795 160.387,255.16 160.752,255.525 162.94,255.525 164.4,254.43 164.4,252.242 
		163.305,251.512 162.94,250.053 161.116,250.053 160.022,251.147 159.657,251.512 157.833,252.606 157.104,250.418 
		153.091,251.147 	"/>
	<polygon points="92.169,414.943 88.156,418.591 88.521,420.415 90.345,421.509 92.899,421.144 97.641,420.78 99.1,420.05 
		101.289,417.132 101.289,414.578 100.924,413.848 99.1,413.119 95.088,413.119 	"/>
	<polygon points="409.911,102.673 413.923,100.484 414.288,99.025 408.451,100.484 404.439,101.214 404.803,98.296 403.709,97.566 
		401.885,99.39 401.885,101.579 401.885,102.673 406.992,103.403 	"/>
	<polygon points="568.234,120.548 570.058,118.724 570.058,116.171 568.964,114.712 566.775,114.347 564.951,116.171 
		564.951,119.454 565.68,120.184 	"/>
	<polygon points="217.296,157.758 219.12,156.299 220.579,154.11 220.214,152.651 217.296,152.651 216.566,153.016 214.013,154.475 
		213.648,157.029 214.377,157.758 	"/>
	<polygon points="623.319,250.782 622.589,251.147 621.495,252.971 621.86,255.16 623.684,256.984 625.873,256.984 626.967,255.89 
		626.967,253.336 625.508,251.512 	"/>
	<polygon points="153.091,134.046 154.185,132.952 154.185,129.669 152.726,127.844 150.902,127.844 150.537,128.209 
		148.348,129.304 150.537,133.681 	"/>
	<polygon points="489.802,117.995 492.356,118.36 492.72,117.995 492.72,113.617 491.626,112.523 489.437,112.158 488.708,112.523 
		487.978,113.982 488.343,115.806 	"/>
	<polygon points="643.383,173.08 646.301,173.08 647.031,172.715 648.855,171.256 649.22,167.973 648.49,166.149 647.031,164.325 
		644.477,163.96 642.653,165.419 640.465,168.337 640.465,170.891 641.194,171.621 	"/>
	<polygon points="228.605,185.483 231.888,184.389 233.347,182.929 236.63,181.835 238.454,180.741 238.089,181.835 236.63,182.565 
		233.347,184.753 229.334,186.942 227.145,189.496 226.416,191.685 223.862,191.685 223.497,192.049 223.497,194.603 
		224.957,194.603 228.24,193.144 231.888,190.225 239.549,186.577 243.197,184.024 242.832,179.646 242.467,178.187 
		239.913,178.187 239.549,179.281 236.63,178.917 236.265,180.376 233.712,180.011 231.888,181.47 229.334,182.565 228.24,184.024 	
		"/>
	<polygon points="219.849,159.582 221.673,161.406 224.227,161.406 227.145,159.217 228.605,156.299 228.605,154.11 
		227.145,153.381 226.781,153.745 221.309,155.569 219.849,157.393 	"/>
	<polygon points="184.828,208.83 187.747,207.371 190.665,206.277 191.395,204.817 192.854,204.453 193.219,202.993 
		192.125,202.629 186.288,205.547 183.734,207.736 180.816,209.195 180.816,209.925 184.099,209.56 	"/>
	<polygon points="120.624,276.318 122.083,275.589 126.096,273.035 125.366,271.576 122.812,271.211 120.259,273.035 118.07,274.13 
		118.435,275.954 	"/>
	<polygon points="636.817,278.142 636.817,274.859 636.087,273.035 634.263,271.211 632.804,270.482 632.074,270.846 
		629.521,273.765 629.156,276.318 629.885,278.142 631.709,279.602 635.357,279.602 	"/>
	<polygon points="612.01,117.265 614.199,118.724 616.388,118.724 616.753,118.36 616.753,116.171 615.658,112.888 614.199,112.523 
		612.375,115.441 	"/>
	<polygon points="342.787,132.952 343.517,133.681 347.165,133.317 350.083,131.857 350.813,130.033 349.354,129.669 
		346.07,130.033 343.152,131.493 	"/>
	<polygon points="81.955,532.409 81.59,529.855 79.766,529.49 78.671,530.22 78.671,532.044 79.401,533.138 80.131,536.421 
		82.684,536.786 82.684,534.597 82.319,533.868 	"/>
	<polygon points="254.141,112.888 254.505,111.064 253.411,110.334 251.587,108.51 250.128,108.145 249.033,109.604 
		248.669,112.158 249.033,112.523 	"/>
	<polygon points="652.868,234.366 654.692,232.907 654.692,230.354 653.597,229.624 651.409,229.259 650.314,230.354 
		650.314,232.907 651.044,233.637 	"/>
	<polygon points="122.812,226.706 123.907,226.341 124.289,225.385 124.636,225.246 124.636,224.517 125.366,224.517 
		125.852,224.273 126.46,224.152 126.46,223.969 126.825,223.787 126.825,221.598 126.096,221.233 125.366,221.598 122.812,224.152 
		120.988,224.517 119.164,226.706 121.353,226.706 	"/>
	<polygon points="261.801,144.625 262.531,143.896 262.896,142.437 261.437,140.613 259.248,140.613 258.518,141.707 
		258.153,143.531 258.883,144.625 	"/>
	<polygon points="635.357,91.729 636.452,90.635 636.452,88.446 636.087,88.081 634.263,87.352 632.439,88.446 632.074,90.27 
		632.804,91.364 	"/>
	<polygon points="491.261,124.926 492.356,123.832 491.261,121.643 489.072,121.278 487.978,122.372 487.613,124.926 
		488.343,125.291 	"/>
	<polygon points="419.031,74.584 419.395,72.76 418.666,72.03 416.477,71.3 415.018,72.03 414.653,73.854 416.477,74.948 	"/>
	<polygon points="469.373,124.196 469.738,122.737 468.643,120.184 466.819,119.454 465.725,120.184 465.725,122.008 
		467.914,123.832 	"/>
	<polygon points="463.171,107.051 464.266,106.321 464.266,104.132 463.901,103.403 462.077,101.579 461.347,101.944 
		461.712,107.051 	"/>
	<polygon points="647.396,142.072 647.396,140.248 646.301,139.153 644.842,138.789 644.113,139.518 644.113,141.707 
		645.572,143.166 	"/>
	<polygon points="633.533,240.203 633.169,242.392 634.263,243.486 636.452,243.122 636.817,240.933 636.087,240.203 
		634.263,239.838 	"/>
	<polygon points="117.34,230.718 116.976,228.894 115.516,228.894 112.963,230.354 112.963,232.178 114.422,232.542 	"/>
	<polygon points="283.69,159.217 284.419,158.488 284.784,155.934 283.325,155.569 280.771,157.393 281.136,158.853 	"/>
	<polygon points="613.469,108.145 613.834,107.78 613.834,105.956 612.74,104.862 610.916,104.862 610.551,105.227 610.186,107.051 
		610.916,108.145 	"/>
	<polygon points="417.207,108.145 418.666,108.145 419.76,107.416 421.219,106.686 423.043,106.321 422.679,104.862 420.49,104.862 
		419.395,104.862 417.571,106.686 	"/>
	<polygon points="131.203,269.387 132.297,268.658 132.297,267.198 130.473,266.834 129.014,269.022 128.649,270.846 
		130.108,271.211 	"/>
	<polygon points="594.5,112.158 595.229,111.064 594.865,108.875 592.676,108.51 592.311,108.875 592.311,111.064 592.676,111.793 	
		"/>
	<polygon points="630.98,284.344 631.709,286.168 633.533,286.533 634.263,285.074 633.898,283.25 632.074,282.885 	"/>
	<polygon points="140.688,259.902 140.323,260.997 138.864,261.726 138.499,263.186 138.955,263.186 138.864,263.55 139.593,263.55 
		140.062,263.16 142.876,262.456 142.876,261.726 141.782,259.902 	"/>
	<polygon points="132.662,220.139 132.662,218.315 132.297,217.95 130.473,217.95 129.379,219.045 129.014,220.504 130.473,221.233 
			"/>
	<polygon points="213.648,171.621 214.742,169.797 215.472,167.973 214.013,167.608 212.189,169.797 211.824,171.256 
		212.553,171.985 	"/>
	<polygon points="136.31,206.277 137.769,205.182 137.404,203.723 135.945,202.993 134.486,204.088 134.851,205.912 	"/>
	<polygon points="219.12,124.926 219.849,124.196 219.849,122.372 218.025,122.008 216.566,123.467 217.296,124.926 	"/>
	<polygon points="507.312,99.755 508.772,99.025 508.772,97.201 506.948,96.107 505.853,97.201 506.218,98.66 	"/>
	<polygon points="135.945,265.739 135.58,267.928 136.675,268.293 138.134,267.198 138.864,265.374 137.04,265.01 	"/>
	<polygon points="290.256,154.84 290.621,153.381 289.162,153.381 286.608,154.84 286.243,155.934 288.067,156.299 	"/>
	<polygon points="491.626,101.944 491.991,101.214 491.261,99.025 489.802,98.66 489.072,99.39 489.437,101.579 	"/>
	<polygon points="564.586,279.237 564.221,281.061 566.045,280.696 567.505,279.602 567.869,278.142 566.775,277.778 	"/>
	<polygon points="441.648,147.544 441.283,149.733 442.013,150.462 443.472,149.733 443.837,147.179 442.378,146.814 	"/>
	<polygon points="127.92,184.753 127.555,182.2 126.46,181.47 125.001,182.929 125.731,184.389 	"/>
	<polygon points="260.707,173.445 262.531,174.174 263.625,169.797 262.166,169.797 261.801,170.161 262.166,172.35 260.342,172.35 
			"/>
	<polygon points="189.936,154.84 189.206,153.381 185.923,153.381 185.558,153.745 185.558,154.84 188.112,155.205 	"/>
	<polygon points="113.328,277.413 111.504,279.237 111.139,280.331 112.963,280.696 114.057,279.237 114.787,277.048 
		113.692,277.048 	"/>
	<polygon points="647.396,269.752 647.761,271.211 649.585,271.576 650.314,270.482 649.949,269.387 648.49,268.658 	"/>
	<polygon points="120.259,252.242 119.894,254.066 120.988,254.066 122.812,252.606 123.542,251.147 121.718,251.147 	"/>
	<polygon points="146.16,192.779 146.889,192.049 146.889,190.225 145.065,189.861 144.336,190.955 144.7,192.414 	"/>
	<polygon points="144.336,250.053 143.971,250.418 143.241,251.877 141.782,252.242 141.782,253.336 143.606,253.336 
		145.795,250.418 	"/>
	<polygon points="344.246,128.939 344.246,127.48 342.787,127.48 340.963,128.574 340.598,129.669 342.058,130.033 	"/>
	<polygon points="460.253,73.489 460.253,70.936 458.794,70.571 458.429,70.936 458.429,73.489 459.159,74.219 	"/>
	<polygon points="597.053,81.15 596.689,79.326 595.229,79.326 594.865,81.515 596.689,81.88 	"/>
	<polygon points="104.937,285.803 103.478,285.438 103.113,285.803 103.113,288.357 104.572,288.722 	"/>
	<polygon points="172.06,251.147 169.507,251.147 168.777,251.512 168.777,253.336 172.06,252.242 	"/>
	<polygon points="253.046,165.784 252.681,167.608 254.505,167.243 255.235,165.419 254.141,165.054 	"/>
	<polygon points="628.426,259.902 626.602,259.538 626.237,259.902 626.237,261.362 628.061,261.362 	"/>
	<polygon points="153.091,258.078 152.726,259.902 154.915,260.267 156.009,260.267 154.55,258.808 	"/>
	<polygon points="151.632,246.405 150.537,246.04 149.808,246.405 149.443,247.864 151.267,248.229 	"/>
	<polygon points="189.206,182.565 188.841,184.024 191.395,184.024 191.395,182.565 189.571,182.2 	"/>
	<polygon points="99.465,246.405 98.371,246.04 96.912,246.405 96.547,247.864 99.1,247.499 	"/>
	<polygon points="626.967,235.826 626.602,237.285 628.061,237.65 628.791,236.555 628.426,235.461 627.332,235.461 	"/>
	<polygon points="159.292,219.774 159.292,217.585 160.387,216.856 160.752,214.667 159.292,214.302 158.198,215.397 
		157.924,216.491 157.833,216.126 157.468,218.315 157.833,219.409 	"/>
	<polygon points="184.099,197.886 184.464,196.062 183.004,195.333 182.64,195.697 183.004,197.521 	"/>
	<polygon points="362.851,124.561 363.946,124.561 364.675,124.196 367.958,123.467 369.418,122.737 373.066,122.737 
		374.16,122.008 374.16,119.454 378.538,120.184 381.091,120.184 381.091,121.643 375.984,122.737 375.619,123.467 373.43,124.926 
		372.336,126.02 371.971,128.209 374.89,130.033 374.525,127.844 377.808,128.574 378.538,127.115 381.456,125.656 383.28,124.561 
		386.563,122.372 386.199,120.913 386.199,119.454 389.847,117.995 394.224,115.806 399.696,112.888 404.074,111.064 
		406.263,110.699 405.898,111.793 405.168,112.158 403.344,113.252 398.602,114.712 395.683,116.9 392.035,117.995 390.941,119.089 
		390.576,120.548 391.306,122.008 393.13,122.372 394.954,121.643 396.048,120.548 400.426,118.724 404.074,117.265 
		405.898,116.171 409.181,115.076 412.099,112.158 414.288,112.523 416.112,110.699 415.747,108.51 413.923,108.145 
		411.005,108.875 408.816,109.848 407.722,110.212 407.722,109.604 408.451,109.604 411.005,107.051 413.923,105.592 
		415.747,104.132 417.936,103.403 418.666,102.308 418.301,101.214 416.112,100.849 414.288,101.579 412.829,103.403 
		409.546,104.497 408.451,105.592 405.168,105.956 403.344,106.321 400.061,106.686 395.683,108.51 395.319,107.051 
		393.495,107.051 392.765,107.416 392.4,108.51 393.859,109.24 392.035,109.969 388.387,109.969 383.28,112.523 382.551,114.347 
		378.173,115.441 377.443,116.536 374.89,116.9 372.701,117.265 372.336,119.089 370.512,119.454 370.147,120.548 367.594,120.913 
		365.77,122.008 362.851,123.467 	"/>
	<polygon points="98.006,283.979 96.547,283.614 95.817,283.979 95.817,285.438 97.641,285.438 	"/>
	<polygon points="151.996,216.856 153.456,217.221 153.82,216.491 153.456,214.667 152.726,214.667 	"/>
	<polygon points="174.614,193.509 173.155,193.509 172.79,195.697 174.249,195.333 	"/>
	<polygon points="635.357,170.891 636.817,170.526 637.181,168.337 636.452,168.337 635.722,168.702 	"/>
	<polygon points="232.982,163.96 233.712,163.96 235.536,162.865 236.265,161.406 235.171,161.406 232.982,162.865 	"/>
	<polygon points="83.414,283.979 82.319,283.614 81.955,283.979 81.59,285.438 83.049,285.803 	"/>
	<polygon points="354.461,128.209 354.461,127.115 352.637,127.115 352.272,127.48 352.637,128.939 	"/>
	<polygon points="340.963,133.681 341.328,135.141 343.517,135.141 343.517,134.411 341.328,133.317 	"/>
	<polygon points="234.441,117.63 234.077,116.536 232.617,116.536 232.253,117.995 233.712,118.36 	"/>
	<polygon points="416.477,98.66 416.477,99.755 419.031,99.39 419.031,98.66 417.571,98.296 	"/>
	<rect x="635.882" y="195.857" transform="matrix(0.2425 -0.9701 0.9701 0.2425 291.4886 766.5506)" width="1.504" height="1.504"/>
	<polygon points="227.51,165.419 225.686,165.419 225.321,166.513 227.145,166.878 	"/>
	<polygon points="254.505,159.217 252.681,159.217 252.681,160.677 254.141,160.677 	"/>
	<polygon points="425.962,148.273 427.421,148.273 427.786,146.449 426.691,146.449 426.327,146.814 	"/>
	<polygon points="432.893,155.205 432.893,154.11 431.434,153.381 431.069,154.84 	"/>
	<polygon points="381.091,106.321 379.997,105.956 379.632,107.78 380.727,108.145 	"/>
	<polygon points="85.603,275.589 84.508,275.224 83.779,276.683 85.238,277.048 	"/>
	<polygon points="114.422,256.254 113.328,255.89 112.598,256.254 112.598,256.984 111.868,256.984 111.504,258.078 
		113.328,257.349 	"/>
	<polygon points="270.557,162.865 269.097,162.865 268.368,164.325 270.192,164.325 	"/>
	<polygon points="243.926,157.758 242.832,157.393 240.643,158.853 241.737,159.217 	"/>
	<polygon points="637.911,264.28 636.817,263.915 636.087,264.28 636.087,265.01 637.546,265.739 	"/>
	<polygon points="147.984,254.795 147.984,255.89 149.443,255.89 149.808,254.43 149.078,254.43 	"/>
	<polygon points="426.327,105.227 427.056,103.403 425.597,103.403 425.232,104.862 	"/>
	<polygon points="111.868,259.538 110.409,259.538 110.044,260.632 111.504,260.997 	"/>
	<polygon points="160.022,245.31 158.563,244.946 158.198,246.405 159.657,246.405 	"/>
	<polygon points="107.491,236.555 108.585,235.096 106.761,235.096 106.396,236.555 	"/>
	<polygon points="106.396,223.057 106.032,221.963 104.572,221.963 104.208,222.328 104.937,223.422 	"/>
	<polygon points="89.98,213.208 89.98,211.749 88.521,211.749 88.156,212.113 88.521,213.208 	"/>
	<polygon points="226.781,174.904 227.145,173.08 226.051,173.08 225.686,174.539 	"/>
	<polygon points="251.222,173.445 251.222,171.985 249.763,171.621 249.763,173.08 	"/>
	<polygon points="371.242,128.574 371.242,127.48 369.782,127.115 369.418,128.209 	"/>
	<polygon points="204.163,169.432 202.704,169.067 202.339,170.161 203.798,170.526 	"/>
	<polygon points="482.871,135.141 482.871,134.046 481.047,133.681 481.412,134.776 	"/>
	<polygon points="576.625,116.536 575.53,116.171 575.165,117.995 576.26,117.995 	"/>
	<polygon points="242.102,175.998 241.373,175.633 240.643,175.998 240.278,177.457 242.102,176.728 	"/>
	<polygon points="272.745,162.865 273.11,161.041 272.381,161.041 271.651,162.501 	"/>
	<polygon points="265.449,151.192 264.355,151.192 263.99,152.651 265.449,152.651 	"/>
	<polygon points="135.216,265.01 136.31,265.01 136.675,263.186 135.945,263.186 	"/>
	<polygon points="72.105,204.817 71.011,204.453 70.646,205.912 72.105,205.912 	"/>
	<polygon points="170.236,144.625 168.777,144.625 168.777,145.72 169.872,146.085 	"/>
	<polygon points="571.517,122.372 571.882,120.913 570.788,120.548 570.423,121.278 570.788,122.372 	"/>
	<polygon points="617.482,274.494 618.577,274.859 618.941,273.4 617.847,273.4 	"/>
	<polygon points="609.457,265.739 610.916,265.374 610.551,264.28 609.457,264.28 	"/>
	<polygon points="164.4,205.912 163.305,205.547 162.94,206.641 164.4,207.006 	"/>
	<polygon points="274.934,133.317 275.299,132.222 273.84,130.763 274.205,132.952 	"/>
	<polygon points="107.491,261.726 108.22,261.726 108.95,260.267 107.856,260.267 	"/>
	<polygon points="634.993,219.774 635.722,219.774 636.452,218.68 634.993,218.315 	"/>
	<polygon points="145.795,216.126 144.336,216.126 143.971,216.856 145.43,217.221 	"/>
	<polygon points="200.15,198.616 199.421,198.251 198.691,198.616 198.691,199.71 199.785,199.71 	"/>
	<rect x="164.552" y="198.404" transform="matrix(0.3162 -0.9487 0.9487 0.3162 -75.8588 292.7128)" width="1.154" height="1.154"/>
	<polygon points="177.897,189.861 176.803,189.861 176.803,191.32 177.897,190.955 	"/>
	<rect x="216.931" y="165.784" width="1.094" height="1.459"/>
	<polygon points="329.29,135.505 328.195,135.141 327.83,136.6 328.925,136.6 	"/>
	<polygon points="501.476,112.158 500.746,112.158 500.381,113.617 501.111,113.982 	"/>
	<polygon points="106.396,278.507 106.396,277.413 105.667,277.048 104.937,278.142 	"/>
	<polygon points="556.925,277.413 558.384,277.778 558.384,276.683 556.925,276.683 	"/>
	<polygon points="94.723,247.864 93.628,247.499 93.264,248.958 93.993,248.958 	"/>
	<polygon points="129.379,235.826 128.649,235.826 128.284,237.285 129.379,237.285 	"/>
	<polygon points="219.12,170.526 218.39,169.797 217.296,170.891 218.39,171.256 	"/>
	<polygon points="207.446,165.784 206.352,165.784 205.987,166.149 207.081,167.243 	"/>
	<polygon points="134.121,260.632 134.121,259.902 133.027,259.538 132.662,260.632 	"/>
	<polygon points="254.87,175.269 255.965,175.633 256.329,174.539 254.87,174.539 	"/>
	<polygon points="296.093,144.625 295.728,145.72 297.187,145.72 	"/>
	<polygon points="594.5,91.364 593.405,91 593.405,92.459 594.135,92.459 	"/>
	<polygon points="607.633,91 606.538,90.635 606.538,92.094 607.268,92.094 	"/>
	<polygon points="97.641,400.351 97.276,401.445 98.006,401.81 98.371,400.351 	"/>
	<rect x="661.258" y="266.834" width="1.094" height="1.094"/>
	<polygon points="643.748,267.563 644.113,266.469 643.383,266.104 643.018,267.563 	"/>
	<polygon points="166.224,231.448 165.129,231.448 165.494,232.907 	"/>
	<polygon points="142.876,219.045 141.782,217.95 141.417,218.315 141.782,219.409 	"/>
	<polygon points="308.131,151.192 306.672,150.827 306.672,151.557 308.131,151.921 	"/>
	<polygon points="389.117,121.278 389.847,120.548 388.752,120.184 388.023,120.913 	"/>
	<polygon points="127.19,199.71 127.555,198.616 126.46,198.616 126.46,199.71 	"/>
	<polygon points="94.723,183.659 93.993,183.294 93.628,184.389 94.358,184.753 	"/>
	<polygon points="125.731,537.151 125.366,538.245 126.46,538.245 126.46,537.516 	"/>
	<polygon points="574.071,277.778 575.165,277.778 575.165,277.048 574.436,276.683 	"/>
	<polygon points="116.246,242.027 115.881,240.933 115.152,242.392 	"/>
	<polygon points="202.339,196.792 201.609,196.792 201.245,197.886 201.974,197.886 	"/>
	<polygon points="283.69,161.771 282.23,161.406 282.23,162.136 	"/>
	<polygon points="428.151,155.205 428.88,155.569 429.245,154.475 428.151,154.475 	"/>
	<polygon points="644.113,259.902 643.383,259.538 643.018,260.267 644.113,260.632 	"/>
	<rect x="629.521" y="241.662" width="1.094" height="0.73"/>
	<rect x="133.392" y="241.662" width="1.094" height="0.73"/>
	<rect x="79.401" y="238.744" width="1.094" height="0.73"/>
	<rect x="150.537" y="192.049" width="0.73" height="1.094"/>
	<rect x="265.449" y="170.891" width="1.094" height="0.73"/>
	<polygon points="222.768,169.067 222.038,168.337 221.673,169.432 	"/>
	<polygon points="636.817,117.995 637.546,117.265 636.452,116.9 	"/>
	<polygon points="616.753,283.979 616.023,283.25 615.658,283.979 	"/>
	<polygon points="154.185,247.864 154.915,247.864 154.55,246.77 	"/>
	<polygon points="100.56,239.838 100.195,240.568 101.289,240.568 	"/>
	<polygon points="245.385,157.029 246.48,156.664 245.385,156.299 	"/>
	<polygon points="359.933,125.656 359.203,125.656 358.838,126.02 359.933,126.385 	"/>
	<polygon points="363.581,118.36 362.851,118.36 362.486,118.724 363.581,119.089 	"/>
	<polygon points="390.211,73.489 389.847,74.219 390.941,74.219 	"/>
	<rect x="94.358" y="459.084" width="0.73" height="0.73"/>
	<rect x="83.049" y="373.72" width="0.73" height="0.73"/>
	<rect x="77.577" y="305.502" width="0.73" height="0.73"/>
	<polygon points="625.873,272.306 626.602,271.941 625.873,271.211 	"/>
	<rect x="632.804" y="268.658" width="0.73" height="0.73"/>
	<rect x="657.975" y="260.997" width="0.73" height="0.73"/>
	<rect x="147.619" y="246.04" width="0.73" height="0.73"/>
	<rect x="150.537" y="216.856" width="0.73" height="0.73"/>
	<rect x="107.856" y="183.659" width="0.73" height="0.73"/>
	<rect x="206.352" y="174.174" width="0.73" height="0.73"/>
	<polygon points="589.757,145.72 589.757,146.814 590.487,146.449 	"/>
	<rect x="270.921" y="140.248" width="0.73" height="0.73"/>
	<rect x="450.403" y="139.518" width="0.73" height="0.73"/>
	<polygon points="335.491,138.059 335.126,138.424 336.221,138.789 	"/>
	<rect x="497.828" y="137.329" width="0.73" height="0.73"/>
	<rect x="330.749" y="133.681" width="0.73" height="0.73"/>
	<rect x="478.128" y="129.304" width="0.73" height="0.73"/>
	<rect x="486.154" y="124.926" width="0.73" height="0.73"/>
	<rect x="477.399" y="117.63" width="0.73" height="0.73"/>
	<polygon points="378.902,112.888 378.902,113.982 379.632,113.617 	"/>
	<rect x="547.44" y="111.793" width="0.73" height="0.73"/>
	<rect x="244.656" y="104.132" width="0.73" height="0.73"/>
	<polygon points="644.113,285.438 643.748,285.803 644.477,286.168 	"/>
	<polygon points="145.43,256.254 145.065,255.525 144.7,255.89 	"/>
	<polygon points="629.885,253.336 630.615,252.971 629.885,252.606 	"/>
	<polygon points="130.473,241.298 130.838,242.027 131.203,241.298 	"/>
	<polygon points="127.92,230.718 128.649,230.354 127.92,229.989 	"/>
	<polygon points="126.46,230.718 126.096,229.989 125.731,230.354 	"/>
	<polygon points="202.339,189.496 201.974,189.861 202.704,190.225 	"/>
	<polygon points="202.339,152.651 202.339,153.381 203.069,153.381 	"/>
	<polygon points="305.213,147.179 305.213,147.909 305.942,147.909 	"/>
	<path d="M670.599,321.195l-1.824,0.365l-0.365-1.824l-0.73-0.73l-2.189,0.365v-2.189l-1.094-0.73l-0.73-2.189l-1.094-0.73
		l-6.202,2.918l-4.378,0.73v-0.73l1.459-0.365l4.013-2.189l0.365-1.459l-3.648,1.094l-3.283,0.73l-0.365-1.459h0.73l5.472-2.554
		l8.026-2.918l1.824-1.459v-3.283h-2.918l3.283-2.189l5.107-2.918l0.365-2.189l-0.73-0.73l-1.824,0.73v0.73l-1.459,0.365
		l-2.918-0.365l-2.189,0.73l-1.094-0.365l-0.365-2.918l-2.918-1.459h-3.648l-1.824,1.094l-2.554,0.365l-1.459-0.73l-2.189-2.554
		v-1.824l-1.459,0.365l-1.094,1.824l-1.824-0.365l-2.918,0.365l-3.648,0.365l-0.365-0.365l-3.648,0.365l-1.094-1.094l-4.378,1.094
		l-0.365-1.094l-1.459-0.365l-3.283,2.554l-1.094-0.365h-1.824l-2.918,0.73l1.459-2.554l-1.094-0.365l-1.824,1.094l-6.566,1.094
		l-1.824,0.73l-3.306,0.496l0.167-0.502l-1.824-0.365v1.115l-2.333,0.35v-1.824l1.094-0.365l3.648-1.824l9.12-4.742l1.459-1.459
		l-0.365-0.73l-4.013,1.459l0.365-1.094l1.459-1.094l2.918-1.824l2.918-2.189l0.73-1.459l-1.094-0.365l-1.459,0.73l-1.459-0.365
		l-1.459,0.73l-3.648,0.73l0.73-4.378l1.094-1.824l5.837-3.648l0.678-0.581l0.925-0.154h6.566l1.094-0.365l1.824-1.459v-1.824
		l-0.365-0.365l-2.554,0.73l-0.73-2.189l-2.189-1.459h-2.554l-2.189,1.094l-2.554,2.554l0.365,2.554l0.201,0.201l-2.534,1.629
		l-3.648,0.73l-0.365-1.459h-1.094l-4.742,2.189l-10.579,3.648l-2.735,0.893l0.326-1.629h-1.459l-0.365,1.459l1.143,0.286
		l-14.784,4.828l-12.038,3.648l-6.473,2.044l-0.679-0.226l0.73-3.283l0.365-1.459l-1.094-0.73l0.365-1.094l-0.365-2.189l1.459-0.365
		l0.365-1.459h-2.189v-1.094l1.094-0.73l0.365-1.094l-4.013,0.365l0.365-0.73l2.554-1.459l9.85-2.918l2.189-1.094l-1.459-0.365
		l-2.688,0.806l-4.243,0.653l0.365-0.73l3.648-2.189l7.661-3.648v1.094h1.094l2.554-1.459h3.648l2.918-1.459l7.661-1.824v1.094
		l2.189,3.283l2.918,2.189l0.365,1.459h-0.73l-0.365,0.73v2.189l1.094,1.094l2.554-0.365l0.365-2.189l-0.73-1.459l0.365-1.459
		l1.459,0.365l1.094,2.918l1.824,0.73l0.365-4.378l0.73-0.365h3.283l0.325,0.162l-0.104,0.208l0.365,1.094h0.73l0.215-0.86
		l2.848,0.854l1.459-3.648v-0.724h0.221l0.365-1.459l-0.585-0.195v-0.54l-1.824-3.648l-1.459-3.283l1.459-1.459l6.202-3.283
		l1.824-2.189l4.378-2.918l1.824-1.459l-0.73-1.459l-0.73-2.189h0.73l2.189-1.094v-1.459l-2.918,0.73l1.459-2.554v-2.189
		l-1.824-1.459l0.73-2.554l0.365-2.554l-0.365-0.365l-3.283,0.73l-8.755,3.283v-0.73h0.73v-0.73h0.73l3.283-2.189l5.107-2.918
		l0.73-1.459l-1.459-0.73l-1.824-2.554h-0.73v-0.73l-0.365-1.459h-4.013l1.094-1.094l5.107-2.189l0.73-1.459h-0.73l-0.73,0.365
		l-4.742,1.824v-0.73h0.73l3.648-2.189l5.107-4.378l1.824-0.73l2.918-0.365l0.365-1.824h0.73l2.189-1.824l0.365-2.918l0.73-0.73
		l1.094-1.824l-0.365-4.013l1.824-2.189l1.094-1.824l2.554-3.648l-0.365-1.094l-1.824,0.73l-1.824,0.365l-0.365-1.824l-0.73-0.73
		l-2.189,0.365v-2.189l-1.094-0.73l-0.73-2.189l-1.094-0.73l-6.202,2.918l-4.378,0.73v-0.73l1.459-0.365l4.013-2.189l0.365-1.459
		l-3.648,1.094l-3.283,0.73l-0.365-1.459h0.73l5.472-2.554l8.026-2.918l1.824-1.459v-3.283h-2.918l3.283-2.189l5.107-2.918
		l0.365-2.189l-0.73-0.73l-1.824,0.73v0.73l-1.459,0.365l-2.918-0.365l-2.189,0.73l-1.094-0.365l-0.365-2.918l-2.918-1.459h-3.648
		l-1.824,1.094l-2.554,0.365l-1.459-0.73l-2.189-2.554v-1.824l-1.459,0.365l-1.094,1.824l-1.824-0.365l-2.918,0.365l-3.648,0.365
		l-0.365-0.365l-3.648,0.365l-1.094-1.094l-4.378,1.094l-0.365-1.094l-1.459-0.365l-3.283,2.554l-1.094-0.365h-1.824l-2.918,0.73
		l1.459-2.554l-1.094-0.365l-1.824,1.094l-6.566,1.094l-1.824,0.73l-7.296,1.094v-1.824l1.094-0.365l3.648-1.824l9.12-4.742
		l1.459-1.459l-0.365-0.73l-4.013,1.459l0.365-1.094l1.459-1.094l2.918-1.824l2.918-2.189l0.73-1.459l-1.094-0.365l-1.459,0.73
		l-1.459-0.365l-1.459,0.73l-3.648,0.73l0.73-4.378l1.094-1.824l5.837-3.648l2.554-2.189l0.365-1.459h-1.094l-0.73,0.73
		l-5.107,3.283l-3.648,0.73l-0.365-1.459h-1.094l-4.742,2.189l-10.579,3.648l-17.875,5.837l-12.038,3.648l-6.931,2.189l-2.918,1.459
		l-0.365,1.459l3.648-0.73l3.283-0.73l-0.365,1.094l-4.378,2.189l-8.39,2.554l-3.648,1.824l1.824-1.824v-0.73l-0.73-2.189
		l-3.283,0.365l3.648-1.824l1.824-1.459l-0.73-0.365l-5.107,1.824l-5.837,1.094l-5.107,1.824l-4.013,1.094l2.554-1.824v-1.094
		l1.094-0.73l4.013-0.73l5.472-2.189l4.742-1.824l3.648-1.459l2.918-1.459l2.918-2.554l-0.73-0.73l-3.648,0.73l-5.837,2.918
		l-5.837,1.824l-2.918-0.365l-3.648,1.094l0.029,0.019l-1.123,0.346l-5.837,2.554l-4.378,1.459l-4.013,1.459l0.73-1.094l1.824-1.824
		l4.013-0.365l1.824-1.094l-0.365-1.459h-4.742l-5.472,0.73l-0.73,0.365l-5.472,0.365l-2.554,0.73l-4.013,1.459l-5.837,2.189
		l-4.013,1.824l-2.189,0.73l4.013-2.554l1.824-1.824l-1.094-0.365l-1.824,1.459l-7.296,2.918l-0.73,1.459l-1.094,0.365l-4.378,1.824
		l-2.554,1.459l-2.189,1.094l-0.365-1.094h-2.918l-1.094,0.365l-3.648,2.189l-2.554,0.365l-2.554,1.094l-5.837,2.554l-4.378,2.189
		h-4.013l-0.365,1.824l-1.094,0.365v-0.73l-1.094-0.365l-1.824,0.365l-1.824,1.094v1.094l-1.094,0.73v-1.459h-1.824l-3.648,1.459
		l-5.107,2.189l-3.283,1.459l-2.918,0.365l-1.459-0.73l-0.73,1.459h-1.459l-1.824,0.73l-2.918,0.73l-5.837,2.918l-1.459,1.459
		l-1.824,1.094v-0.73h-1.459l-0.73,1.459h-1.094l-2.918,0.365v-1.094l1.094-1.824l1.094-0.365l1.459-1.094l2.189-1.094l1.824-2.554
		l2.918-1.459l-0.73,1.824l1.459,0.73l1.094-1.459l0.73-1.459l2.554-0.73v1.459l1.824-0.73v-1.824l0.73-0.365l-0.365,1.459h1.459
		l0.73-1.094l-0.365-1.094l0.73,0.365l1.824,0.365l2.189-1.459l0.365-1.459h-1.094l-0.365-0.73h1.094l1.459-1.094l0.73,1.459h1.094
		l1.824-1.094l0.73-1.824l2.554,0.365l1.459-0.73l1.459-0.365l0.73,1.824h-0.73l-1.459,1.094l-3.648,2.554l0.365,1.094l1.824-0.73
		l2.918-1.094l1.824-1.459l0.365-1.824h-0.73l1.824-3.648l2.918-0.73l2.918-1.459h3.283l1.094-1.094l2.554-0.73l0.365-0.73
		l2.554-1.094l0.73-2.189l-1.824-0.365l0.73-1.094l0.73-1.459l0.73,0.365l1.824-0.365l0.73-1.459h1.824l1.094-1.459l2.189-0.73
		l2.918-1.094l2.554-0.73v-0.73h3.283v-1.094l-1.094-0.365v-1.459l2.554-0.365l1.094,1.459l3.648,0.365l0.365,1.459h1.094
		l-0.365-2.918l-0.365-2.554l1.824-0.365l2.554-1.824l-0.365-1.824l-2.554-0.365l0.73-1.824h0.73l1.824-1.459l1.459-2.189
		l2.189-1.459l2.189-2.554l-1.094-0.365l-0.73,1.094l-2.554,0.365v-0.73l2.554-0.73l1.824-1.094l4.742-2.554v-1.094l-3.648,1.094
		l-4.742,1.824l-3.648,1.094l1.094-0.73l5.472-2.189l5.837-3.283l3.283-2.189l1.824-1.824l-0.365-2.189l-0.73-0.365l-0.73,0.365
		l-3.283,1.459l-3.648-0.365l-0.73-0.73l-1.824,0.365v0.73v1.459l-3.648,1.824l-3.648,0.365l-0.73-0.73l-1.459-0.365l-5.107,1.824
		l-1.094,1.094h-1.094l-0.73-1.459l1.824-0.73l2.189-1.824v-1.459l-4.013-0.365l-0.365,0.365l0.365,1.459h-4.013v-0.73l1.094-1.459
		l-1.459-0.365l-1.094,0.73h-2.189l-0.365,0.73l-3.283,0.73l-7.296,2.189l-5.837,2.554l-12.038,4.742l-4.742,1.824h-2.554v1.459
		l-1.824,0.365v-1.094l-1.459-0.365l-2.918,1.094l-0.73,1.094l-0.73,2.189l-1.094,0.73l-3.283,1.824l-2.554,0.365l-0.73,1.094
		l-2.189,0.365l-5.107,1.459l0.365-1.094l2.554-0.73l1.094-1.094l0.365-1.459l-2.189-0.365l-1.824-0.365l-1.824,1.094l-2.918,1.094
		l-3.648,0.73l-1.459-1.824h-2.189l-4.013,1.824l-2.189,2.554l-4.742,0.365l-1.824,1.459l-3.648,0.73l-1.824,2.189h-1.824
		l-1.824,0.73l0.365-1.094l-0.365-1.459h-2.554l-1.459,1.459l-1.459-0.365l-0.73-2.189l-0.73-0.365l-1.824,0.365l-2.554,1.094
		l-0.73,2.189l-1.824-1.094l-0.182,0.091l-0.182-0.091l-0.365,0.365v2.189l1.094,2.189l0.365,0.73h2.189l3.283-0.73l0.365,0.73
		l-2.918,0.73l-1.094,1.094l0.365,1.824h-1.094l-2.554,0.365l-1.094-0.365l0.73-1.459l0.365-2.189l-0.73-0.73l-2.554-0.365
		l-1.094,0.73l1.094-2.554l1.459-0.365v-0.73h-0.73l-2.189,0.365l-1.824,3.648l-1.094,3.283l0.365,1.459l3.648-0.365l-0.73,2.554
		h-1.094l-1.824,0.365l-2.189,1.094l-1.094,1.459h-2.554l-2.189,1.824v1.824l-1.824-1.094l-3.648,1.094l-1.824,1.094l-2.918,1.094
		v-0.73l2.554-0.73l1.459-2.189l3.283-1.459l2.189-1.459l0.365-1.459l-2.918,0.73v-2.189l1.824,0.365l-0.365-2.189l1.094,0.365
		l1.459-1.459l-0.365-0.73l-1.824-0.365l-1.094,1.459l-4.742,1.459l-0.73,1.459l1.824,1.094l-0.365,2.554h-2.189l-1.459,0.73
		l-1.824,0.365l-0.73,2.189h-2.554l-2.554,1.094l-1.459,2.189l1.824,0.365l3.283-1.459l3.074,0.279l-0.885,1.18l-3.283,0.365
		l-4.013,2.189l-0.365,1.824l-4.013,2.189l-1.824,0.365l0.365-3.648l-1.094-2.189h-2.189l-3.648,1.824l-2.918,2.189l-1.824,1.824
		v1.459l1.824-0.365l-0.73,1.824l0.73,0.365l1.459-0.365v-0.73h0.73l2.554-1.459l1.824-0.365v1.094h-1.459l-1.459,0.73l-3.283,1.824
		l-4.742,2.554l-1.094,2.189l-1.824,1.459l-0.73,1.459l1.824,0.73l0.73,1.459l-2.554-0.365l-0.365-1.459l-1.459-0.73l-1.824-0.365
		l-0.73,1.459l-1.459-0.365l-3.283,0.365l-2.918,2.918l-5.107,1.459l-4.378,2.189l-4.742,2.918l-3.648,2.918l-0.365,1.824
		l0.73,1.094h2.189l2.554-1.094h2.918l1.459,0.365v1.459h-1.094l-1.459,1.094l-1.824,1.824h-2.189l0.365-1.094l2.554-0.73
		l0.73-2.189l-2.189,0.365l-6.566,2.918l-2.189,1.824l-2.189,0.365l-1.094-1.459l-3.648,0.365l-0.365,0.73l-1.459,0.365v-1.459
		l-2.554,1.459l-0.365,2.189v2.918h-2.189l-1.459-0.73l-1.797-0.299l0.338-3.713h1.459l1.094-0.73l0.73-2.918l1.459,0.365
		l1.094-0.365v-2.554l1.824-1.094v-1.459l-0.782-0.261l-0.294-0.235l0.346-2.423h-1.094l-1.094,1.094l-2.189,1.094v1.094h1.824v0.73
		l-1.459,0.73l-1.094,1.824l-2.554,0.73l-4.378,2.554l-1.824,1.459l-1.824,0.73l-4.378,2.189l-4.013,2.554l-3.648,2.554l-1.824,0.73
		l-3.648,2.189l-5.837,2.918l-1.459,0.365l-0.73-1.824h-1.094v1.459l0.73,1.094l-1.824,0.73l-1.824,1.094l-0.365,1.459h-0.73
		l-8.39,4.742l-7.661,4.013l-1.824,1.459l-6.566,3.648l-5.837,3.283l-3.648,2.918l-1.094,1.824l3.283,0.73l0.73-1.459h0.73
		l4.013-1.824l-0.365,1.459l-4.742,1.824l-0.73,1.094l-3.283,2.189l-0.73,1.459l1.094,1.824l0.73,0.365l0.365-0.73l2.918,0.365
		l0.73-1.824l-2.189-0.73v-1.094l2.918-0.365l0.365,0.73h1.094l-0.365-1.824l1.548-1.857l2.83-1.061l-0.046-0.023l1.14-0.342
		l1.459-0.365l-1.094,0.73v0.73l1.459,0.365l0.73-1.824l-0.061-0.182l0.426-1.277l1.824-1.094l4.742-1.459l0.365-1.094h0.73
		l0.365-1.459h0.73l4.013-2.189v-0.73l1.824-0.365l0.73-1.094l3.648-2.554l0.73-1.824l2.554-0.365l3.648-1.824l3.283-2.554
		l2.554-1.094l1.824-2.554l1.824-0.73v-0.73l1.459,0.365l-2.918,1.824v1.094h1.094l1.824-0.73l4.013-1.824l1.459-1.459l2.554-0.73
		l3.283-2.189l4.378-2.189l1.498-0.922l0.326-0.173l3.59-1.958l0.489-0.098l1.758,3.515l-1.824-0.73h-1.824l-1.824,0.73
		l-1.459,1.094l-2.554,1.094l-0.073,0.219l-0.292,0.146v0.73l-0.365,1.094l-1.459,1.459h-3.283l-2.918,1.094l-1.459,1.459
		l-2.189,0.73l-3.283,2.189l-3.283,1.824l-1.824,1.824l-3.648,1.824l-0.365-1.459h-1.094l-1.459,1.094l-1.094,2.189l-1.824,0.365
		l-0.73,1.459h1.824l1.459-1.094v0.73l-0.73,1.824l-2.554,0.73l-2.918,1.824l-1.094,1.094l-2.189,1.094l-2.189-0.365l-0.365,2.554
		l-1.824,0.73l-0.673,1.571l-0.056-0.112l-0.365,1.094l-2.189,0.73l-0.73,1.459l1.094,0.365l2.189-1.094l0.73-1.094l2.554-0.365
		l0.73-1.824h2.918l0.73-0.365l1.459,0.365l0.365,1.459l-2.554,2.554l0.365,2.554l-0.73,0.73l-0.365,2.189l1.824,0.365l3.283-2.189
		h2.918l0.73-0.365l2.918-1.824l6.566-2.554l1.824,0.73l1.824-0.73l1.459-0.73l-0.73,1.094l-1.459,0.73l-3.283,1.459l-1.459,1.459
		l-3.283,0.73l-2.918,1.459l-0.73,2.554l-1.094,0.73l-0.73,1.824h-0.73l-1.824,1.459l-0.73,1.459h-0.73l-0.365,0.73l-1.459,0.73
		l-0.365-0.73h-1.094l-0.73,2.189l-2.554,1.459l-0.73-0.365l-1.824,0.365l-0.365,1.459h1.459l-0.365,1.094l-1.824,1.094
		l-1.459,1.824l-3.283,1.824l-1.094,1.094l-5.837,4.378l-3.648,1.824l-0.73,1.459l-1.459,1.094l-3.648,0.365v1.824l-4.378,2.918
		h-2.554l-1.459,1.094l-0.73,1.824l-0.73,0.365l-1.459-0.365l-2.189-0.365l-0.73,1.459l-1.824,0.365l-5.837,3.648l-3.648,1.459
		v-1.094h0.73l2.189-1.459l1.459-2.189l-0.365-1.824l1.459-0.365l1.094,0.73v-2.189l-0.365-1.824l-3.283-0.73l-2.554,0.365v1.094
		l2.554,0.365l-1.459,1.459l-1.094,3.283l-3.283,1.094l-3.283,1.459l-5.472,4.013l-4.013,2.918l-6.566,4.013l-8.755,5.107
		l-5.837,2.918l-2.189,2.918l-4.742,2.918l-3.283,2.189l-1.094,2.189l0.365,1.459h1.824l2.918-3.648l5.107-3.648l5.837-3.648
		l-0.73,2.189l-1.824,0.73l-5.472,3.648l-0.365,1.824l1.824,1.094l0.365,4.013l-1.824,2.554l-0.73,1.824h1.094l4.013-2.554
		l5.472-4.013l2.554-1.459l-1.094,2.554l-2.554,2.554l-5.107,4.013l-8.026,6.566l0.73,0.365l4.742-2.918l5.107-3.648l3.648-2.918
		l2.918-2.189l2.554-1.094l-0.365,1.459h-0.73l-1.459,1.094l-3.283,3.648l-3.283,2.554l-3.648,2.918l-2.554,0.73l-3.648,2.554
		l-6.566,4.013l-3.648,3.283l-2.918,2.554l0.365,3.648l-1.824,1.094l0.365,1.459h2.189l5.472-2.554l-0.365,0.73l-3.648,2.554
		l-0.365,1.459h1.459l2.554-1.459l4.378-1.459l-0.365,0.73l-6.202,4.013l-0.73,1.459l2.189,1.459l3.283-0.73l3.648-1.094v0.73
		l3.648-0.73l0.365,1.459h1.094l4.013-1.459l2.554-0.365l-0.73,1.824h1.094l0.274-0.342l0.091-0.023l0.219-0.365l0.876-1.094h2.189
		l0.73,0.73l2.189-0.365l3.648-2.189l5.837-2.918l3.283-0.73h3.648l-1.459,1.094l-1.824,1.459l-1.094,2.554l-1.459,1.094
		l-0.73,1.459h1.459l1.459-0.73l-2.189,2.918l-1.094,1.824l-2.554,2.918l-0.73,1.824l-1.094,0.365l-0.73,2.189l-2.189,2.554
		l0.365,1.459l5.107,0.73l0.365,1.459h-0.73l-0.73,1.094l-0.365,1.824h1.824l1.459-1.094l1.459-1.824l1.824-1.824h2.918l0.73-1.824
		l2.189-1.824l4.742-3.648l3.283-1.459v-1.824l2.554-2.554l2.554-0.365v1.459h-0.73l-2.189,1.824l-0.73,1.459l-1.459,0.365v1.824
		h1.459l0.73-1.094l3.283-2.189l2.918-3.283l1.824-1.824l4.013-3.283l1.459-2.189l1.459-0.73l-0.365,1.459l0.365,0.73l2.554-1.824
		l-1.094,2.189l-1.824,1.094v-0.73h-0.73l-1.094,1.094l-2.189,1.824l-0.73,2.189l-2.189-0.365l-0.365,1.459l-1.459,1.824
		l-3.283,2.554l-0.365,1.459l1.824,0.73v1.824l0.73,0.73l0.365,3.283l-1.459,1.459v0.73l-1.459,0.73l-0.73,1.459l2.918-1.459
		l3.648-2.918l4.013-4.378l0.365,0.73l-1.459,2.189l-10.944,10.944l-5.472,4.378l-2.918,2.189l-3.648,2.918l-1.459,1.824
		l1.459,0.365l1.459-0.73l1.094-1.094l0.73,0.365l1.824-0.73l0.122-0.243l2.432-1.216l3.648-2.918l0.73-1.459l-1.459,0.365
		l-2.189,1.459v-1.094h0.73l2.918-2.189l9.485-8.755l4.013-2.554v0.73l-1.459,1.094l-3.283,4.378l-2.918,2.918l-4.013,2.918
		l-0.73,2.189l-1.824,2.189l-0.73,2.189l-2.189,0.365l-2.918,1.459l-1.824,1.459l-3.283,1.824l-0.365,1.824h1.094l1.824-1.459h0.365
		v1.094l2.918-0.365l-0.365,2.189l1.459,1.459l-0.365,2.189l0.73,2.189h1.824l-0.365,2.189l1.459,1.094l4.378,0.365l-0.365,1.824
		l1.094,1.094h0.953l-0.003,0.006l1.459,0.365l0.093-0.371h0.051l1.824-0.365l4.378-1.824l-0.365,1.094l-1.459,1.459l-0.365,1.459
		h2.554l-0.365,1.824l0.365,2.918l-1.824,1.459l-0.365,1.459h1.094l1.094-0.73l3.648-0.365l0.221-0.221v0.591h1.508l-0.269,0.359
		l-0.365,1.459l2.554,0.365l-1.459,4.378l-1.094,1.459l0.365,1.459l1.094,0.365v0.962l-0.683,0.497h-0.046l-2.554,1.459
		l-0.083,0.414l-5.898,3.604l-8.755,5.107l-5.837,2.918l-2.189,2.918l-4.742,2.918l-3.283,2.189l-1.094,2.189l0.365,1.459h1.824
		l2.918-3.648l3.063-2.188v0.358h0.73l0.267-1.07l1.048-0.748l5.837-3.648l-0.73,2.189l-1.824,0.73l-5.472,3.648l-0.365,1.824
		l1.824,1.094l0.365,4.013l-1.824,2.554l-0.73,1.824h1.094l4.013-2.554l3.988-2.924h0.899l-0.139-0.557l0.725-0.531l2.554-1.459
		l-1.094,2.554l-2.554,2.554l-5.107,4.013l-8.026,6.566l0.73,0.365l1.313-0.808l0.656,0.437v0.73l-2.918,2.189v0.222l-2.065,1.262
		l-0.124-0.025l-0.258,0.258l-0.482,0.294l-2.544,1.272v0.283l-0.144,0.088l-3.648,3.283l-2.918,2.554l0.365,3.648l-1.824,1.094
		l0.365,1.459h2.189l5.472-2.554l-0.365,0.73l-3.648,2.554l-0.365,1.459h1.459l2.554-1.459l4.378-1.459l-0.365,0.73l-6.202,4.013
		l-0.73,1.459l2.189,1.459l3.283-0.73l3.648-1.094v0.73l3.648-0.73l0.365,1.459h1.094l4.013-1.459l2.554-0.365l-0.73,1.824h1.094
		l0.274-0.342l0.091-0.023l0.219-0.365l0.876-1.094h2.189l0.73,0.73l2.189-0.365l3.648-2.189l5.837-2.918l3.283-0.73h3.648
		l-1.459,1.094l-1.824,1.459l-1.094,2.554l-0.585,0.439v-0.08l-1.459-0.365v2.189l0.021,0.041l-0.165,0.33h0.33l0.179,0.359
		l1.094-0.365v-0.066l1.315-0.658l-2.189,2.918l-1.094,1.824l-2.554,2.918l-0.73,1.824l-1.094,0.365l-0.73,2.189l-2.189,2.554
		l0.365,1.459l5.107,0.73l0.365,1.459h-0.73l-0.73,1.094l-0.365,1.824h1.824l1.459-1.094l1.459-1.824l1.824-1.824h2.918l0.73-1.824
		l2.189-1.824l4.742-3.648l3.283-1.459v-1.824l2.554-2.554l2.554-0.365v1.459h-0.73l-2.189,1.824l-0.73,1.459l-1.459,0.365v1.824
		h1.459l0.73-1.094l3.283-2.189l2.918-3.283l1.824-1.824l4.013-3.283l1.459-2.189l1.459-0.73l-0.365,1.459l0.365,0.73l2.554-1.824
		l-1.094,2.189l-1.824,1.094v-0.73h-0.73l-1.094,1.094l-2.189,1.824l-0.73,2.189l-2.189-0.365l-0.365,1.459l-1.459,1.824
		l-3.283,2.554l-0.365,1.459l1.824,0.73v1.824l0.73,0.73l0.365,3.283l-1.459,1.459v0.73l-1.459,0.73l-0.73,1.459l2.918-1.459
		l3.648-2.918l4.013-4.378l0.365,0.73l-1.459,2.189l-10.944,10.944l-5.472,4.378l-2.918,2.189l-3.648,2.918l-1.459,1.824
		l1.459,0.365l1.459-0.73l1.094-1.094l0.73,0.365l1.824-0.73l0.122-0.243l2.432-1.216l3.648-2.918l0.73-1.459l-1.459,0.365
		l-2.189,1.459v-1.094h0.73l2.918-2.189l9.485-8.755l4.013-2.554v0.73l-1.459,1.094l-3.283,4.378l-2.918,2.918l-4.013,2.918
		l-0.73,2.189l-1.824,2.189l-0.73,2.189l-2.189,0.365l-2.918,1.459l-1.824,1.459l-3.283,1.824l-0.365,1.824h1.094l1.824-1.459h0.365
		v1.094l2.918-0.365l-0.365,2.189l1.459,1.459l-0.365,2.189l0.73,2.189h1.824l-0.365,2.189l1.459,1.094l4.378,0.365l-0.365,1.824
		l1.094,1.094h2.554l1.824-0.365l4.378-1.824l-0.365,1.094l-1.459,1.459l-0.365,1.459h2.554l-0.365,1.824l0.365,2.918l-1.824,1.459
		l-0.365,1.459h1.094l1.094-0.73l3.648-0.365l0.365-0.365l3.283-1.824l-2.189,2.918l-0.365,1.459l2.554,0.365l-1.459,4.378
		l-1.094,1.459l0.365,1.459l1.094,0.365v1.459h-0.73l-2.554,1.459l-0.365,1.824h1.824l-0.365,1.824h1.094l0.365-1.094h1.094
		l0.365-1.459v-1.094h2.554l1.094-1.094l-1.824,3.648l-1.824,1.094l-0.73,1.459l-3.648,0.73v1.824l-0.73,0.73l-2.918,1.094
		l0.365-2.554l-0.73-2.189h-0.73l-1.094,1.459v1.459l0.73,1.824h-1.094l-1.824,1.094l-0.73,1.459l-2.918,0.73l-1.094,3.283h1.459
		l2.918,0.365l0.365,1.824l-4.013,3.283v1.094l4.378-0.73l1.824,0.73l2.189-1.824l5.107-0.73l-0.365,1.459l-3.283,2.918
		l-3.648,1.094H155.5l-1.094,0.73l-3.283,1.459l-1.094,1.824l-0.365,1.824l0.73,0.73l0.365,2.189l-2.554,1.094l0.365-1.094
		l0.73-1.459l-1.094-1.094l-1.459-0.365l-1.459,1.459l-1.094,0.365l-3.648,1.824v0.73l1.459,0.365v1.094l-2.554,0.365v-0.73
		l-1.459,0.73l1.094,0.73v0.73l-2.918,2.189v1.824l-1.459-0.365l-0.274,0.091l-0.456-0.091l-0.365,0.365l-2.918,1.459v1.094
		l0.274,0.274l0.091,0.456l0.486,0.122l0.243,0.243l0.365-0.091l0.365,0.091l0.438-0.292l0.292-0.073l1.459-1.094l1.094-0.73
		l1.824-0.73l3.648-1.824l1.459-1.459l1.824-1.459l3.648-0.365l2.918-2.918l2.554,0.365l1.459,1.459h0.73l2.189-2.554l-0.365-1.094
		l0.365-1.094l3.283-0.73l1.459-2.554l3.283-0.73l1.094-1.094l4.378-1.459v-0.73l1.094,0.365l0.365,1.824h2.554l0.365-1.824
		l-1.094-0.365l0.365-0.73l2.189-1.094l1.094-1.824l1.094-0.73l2.918-0.73l1.459-1.459l1.459-0.365l-0.365,1.094l-2.554,1.459
		l-0.365,1.824l0.73,1.094h-0.73l-1.824,1.094l-0.365,1.824h1.094l1.459-0.73l1.824-0.365l0.365,2.189l0.073-0.219l0.292,1.313
		l2.918,0.365l0.365,2.918h1.824l1.459-1.094l4.378-2.554l3.648-2.554l2.918-1.459l4.378-2.918l2.554-1.459l3.648-2.189l5.837-2.918
		l4.013-2.918l1.824-0.73l2.189-1.824l4.013-2.189l7.296-5.107l4.742-2.918l6.931-4.378l4.742-1.094l2.554-1.459l3.283-2.189
		l2.918-2.554l3.648-3.283l3.648-1.824l4.013-1.459l2.189-1.459l3.648-2.554l1.824-1.459l5.107-3.648l1.459-1.459l-2.918,0.365
		l0.365-0.73l2.554-1.824l4.742-3.283l4.378-2.189l4.742-0.365l2.189-0.73l2.189-0.365l0.73,1.459l-2.918,2.189l-1.094,1.824
		l1.824-0.365h3.648l4.742-2.554l-0.73,6.202l-8.755,4.378l-0.73,1.459l-1.459,1.094l-4.378,2.554l-4.378,2.189l-3.648,1.094
		l-1.824,2.189l-0.73,1.459l-1.824,0.73v-1.459h-1.824l-4.378,2.918v1.094l1.459-0.365l-0.365,0.73l-3.648,2.189l-2.554,2.554
		l-3.283,1.824l-1.459,1.459l-2.189,0.73l-2.918,1.459l-4.013,2.918l-2.189,0.365l0.73-1.824l-1.824,0.365l-7.661,4.378
		l-6.202,4.013l-3.283,1.094l-0.365-1.094l1.094-1.094l1.824-2.189l-1.094-0.365l-1.459,0.73l-1.094,1.824l-1.094,0.365
		l-3.648,2.189l-4.013,3.648l-0.73,1.824l-1.459,0.73l-3.648,2.189l-2.918,3.283l-2.189,1.094l-1.824,1.459l-2.918,0.365
		l-0.73,1.824l-1.459,1.459l-2.918,2.554l-2.554,0.73l-2.189,1.459l-1.824,1.824l-1.094,2.554l-1.824,0.73l-4.378,0.73l0.365,1.824
		l1.824,0.73l2.189-0.365l0.73-1.824l1.094,0.821v2.462h3.283l-0.73,2.189l-5.472,0.365l-2.554,2.189l-3.648,0.365l-2.529,0.948
		l-0.389-0.584l-1.459-0.365l0.365-1.459l-2.189-0.365l-0.365,1.824h-1.459l-3.648,1.824l0.365,1.459l1.824,0.365l1.094,0.365
		l1.824,0.73l1.824,0.365l1.459-0.73l1.824-0.365l0.73,1.094l1.094-0.365l-0.365-2.554l0.73,0.365h2.189l1.094-0.73l2.554-0.365
		l-0.365,0.73l0.104,0.052l-0.104,0.313l0.521-0.104l0.208,0.104l0.41-0.228l0.684-0.137l1.251-0.938l0.938-0.521l0.243-0.365
		l0.486-0.365l0.066-0.464l0.663-0.995l2.554-0.73l3.648-2.189v-1.824l1.459-1.094v1.824l1.824-0.365l3.648-2.918l3.648-1.824
		l1.094-1.459l1.094-0.365l3.648-2.189l2.918-2.189l-1.094-0.365l-1.824,0.73l0.365-1.094l2.918-1.824l3.283-0.73l0.365,0.73
		l2.189-1.459l0.73-1.459l3.283-0.365l6.202-4.013l3.648-2.189l7.661-5.107l6.566-4.013l0.73-0.608l0.73-0.486l0.104-0.208
		l0.625-0.521l3.648-2.189l4.742-3.283l1.824-1.824l-1.094-0.365l-0.73,1.094l-4.013,2.189l-2.554,2.189l-2.554,0.73v-2.554
		l-0.365-0.365l-1.824-0.365l-0.365-1.459h0.73l2.189-1.094l-0.365,0.73v2.189l0.365,0.365l1.824,0.365l1.824-1.094l2.918-1.824
		l0.73-1.459h0.73l0.73-1.459h-0.73l-0.365,1.094h-2.554l-1.459,0.73l-1.824,0.365v-0.73l2.321-1.99l3.88-2.388l6.202-3.283
		l4.013-2.554l4.378-1.094v1.459l0.365,0.73l1.459-0.73l0.73-3.648h0.73v0.73h1.459l2.918-1.459l3.648-2.189l4.013-2.554
		l2.189-0.365l0.73,0.73l2.554-0.365l4.378-1.094h4.742l2.554-1.459h1.459h1.824l3.283-1.094l4.378-1.094l-1.094,1.094l-5.107,1.824
		l-0.365,1.094h1.459h2.554l3.283-1.094l4.013-0.73l0.73-0.73l0.73-1.824h1.824l0.365-1.459l-1.094-0.365l1.824-1.094l4.013-0.365
		l0.73-1.459l2.918,0.365h2.918l-0.73,1.094l-2.189,0.365v1.094l0.73,1.824h1.094l1.824-1.459l1.459,0.73l1.459-0.365l1.824-2.918
		l1.459-0.365v-1.824h0.73l2.189-1.094l4.013-1.094l1.824-1.459l-0.365-2.189h0.73l0.365-1.459l-1.094-1.459h1.459l0.365,1.459
		l1.459,0.73l-1.094,1.094l-0.365,1.094h3.283l1.824-0.73l1.824-1.459h2.189l0.365-1.094l-1.459-0.365l0.365-1.094l3.283-1.094
		l1.459-1.094l1.824-1.094v-2.189l2.554-0.365l1.459-1.459l1.824-0.73l0.365,1.459l1.094,0.365l1.094-1.824l1.459-0.365l0.73-0.73
		l3.648-0.365l0.365-1.094h0.73l1.094,1.094l2.189-0.365l4.013-2.189l1.459-1.094l6.931-3.283l1.824-1.459l3.648-1.459l0.365-2.189
		l-1.824-0.73l-3.648,1.459v-0.73h0.73l2.554-1.824l3.283-1.824h2.189l1.824-1.094l5.472-2.189l4.013-1.459l2.189-0.365l0.365,1.459
		l-1.459,2.189v2.189l0.73,0.365l1.094-0.365l0.73-1.824l1.459-0.365l0.365-1.824l1.094-0.365l-0.365,2.189l3.283-0.365l2.554-0.73
		l2.918-1.094l1.459-1.094l6.566-3.648l2.189-0.365l0.365,0.73h1.094l1.459-0.73l1.824-1.459v-1.824l-1.824-2.554l-1.459,0.365
		l-0.365,1.459h-1.459l0.365-1.094l1.824-1.094h4.013v-2.918l1.094,0.73h1.459l-0.365-1.824l1.824,0.365l1.094-0.73h2.189l0.73-0.73
		h2.189l4.378-1.094l2.554-0.365l2.189-1.094l-0.365,1.094l-1.459,0.365l-1.094,0.365l-2.918,1.459l-1.094,1.824l-0.365,1.824
		l1.459,0.365l0.73-0.73l3.283-1.094l2.189-1.094l5.472-2.554l1.824-1.094l1.824-1.459l-0.365-1.824h-2.554l-0.73,0.365l0.365-1.094
		l1.459-1.094l2.918-2.554l2.189-1.459l2.189,0.365l0.365-0.73l1.459-1.459l5.107-1.459l6.202-2.189l2.189-1.459l5.472-2.189
		l-0.73,1.824l-2.554,2.189l-2.189,1.094l-3.283,1.459l-0.365,1.459h1.094l5.837-2.189l3.283-0.73l2.554-1.824l0.365-1.094
		l-1.094-1.094v-3.283l1.094-1.824l-0.365-2.918l0.73-1.824l5.472-2.189l2.554-1.094l0.73-1.094l-0.365-1.094l-4.013,0.73
		l-3.283,1.459l-1.824,0.365l-0.73-0.73l0.365-3.648h1.824l-0.73,1.094l0.365,1.094l1.459,0.365l0.365-0.73l1.094-2.189l0.73,0.73
		h0.73l1.459-1.094l1.824-2.554l1.824-1.824l-0.365-1.459l1.094-0.73l4.378-1.094l3.283-1.094l3.648-1.459l0.73-1.824l2.918-1.824
		l4.013-1.459l2.918-1.094l2.554-1.094l2.554-1.824h5.107v0.73l-1.824,0.365l-1.094,0.73l-2.189,2.554l-1.459,1.824v1.824
		l0.73,1.459l1.824,0.365l0.73-1.824l1.094-0.365l-0.365,1.459l0.365,1.824h1.824l2.189-1.094l0.73-1.459l1.824-0.73l0.73-1.459
		l-1.094-1.459l2.554-0.365l0.365-1.824h1.094v3.283h1.459l0.73-2.554l1.459-0.365v0.73l1.459,0.73l4.013-1.459l1.094-1.459h1.094
		l1.824,0.73l-1.094,1.094l-3.648,2.189h-3.648l-0.365,0.365l-0.73,2.554l-2.918,2.189l-3.283,0.73l-0.365,0.73l0.365,2.189
		l3.283-0.73l1.094-1.094l2.554-0.73l2.918-1.459l1.824-1.459l2.554-0.365l1.459-1.459l1.459-0.73l0.365-0.73l1.824-0.73
		l1.459,1.459h1.459l0.73-2.189l1.459-2.554l0.365-1.459h-1.459l-6.202,1.824l0.365-0.73l1.459-0.73l2.918-2.554l3.648-1.824
		l1.824-0.73l2.918-1.094h2.189l0.365-1.094l-0.365-2.189L605.3,431l-2.189,0.365l-5.107,2.554l-0.73,2.554l-1.459,0.365
		l-1.094-1.094l-1.459,0.365l-4.742,1.459l1.459-1.459l2.554-0.73l0.73-0.73l-0.365-1.094l0.365-2.554h-1.824l-3.283,0.73
		l-1.824,1.094l-4.742,1.459l0.365-2.189l-1.094,0.365v0.73h-0.73v0.73l-1.094-0.365l0.73-1.094l0.73-2.189h2.189l1.459,0.73
		l1.824-2.554l1.824-1.094h2.918l0.365-1.094l-1.094-0.365l0.73-3.283l0.365-1.459l-1.094-0.73l0.365-1.094l-0.365-2.189
		l1.459-0.365l0.365-1.459h-2.189v-1.094l1.094-0.73l0.365-1.094l-4.013,0.365l0.365-0.73l2.554-1.459l9.85-2.918l2.189-1.094
		l-1.459-0.365L597.869,407l-4.243,0.653l0.365-0.73l3.648-2.189l7.661-3.648v1.094h1.094l2.554-1.459h3.648l2.918-1.459
		l7.661-1.824v1.094l2.189,3.283l2.918,2.189l0.365,1.459h-0.73l-0.365,0.73v2.189l1.094,1.094l2.554-0.365l0.365-2.189l-0.73-1.459
		l0.365-1.459l1.459,0.365l1.094,2.918l1.824,0.73l0.365-4.378l0.73-0.365h3.283l0.73,0.365l3.648,1.094l1.459-3.648v-2.918
		l-1.824-3.648l-1.459-3.283l1.459-1.459l6.202-3.283l1.824-2.189l4.378-2.918l1.824-1.459l-0.73-1.459l-0.73-2.189h0.73
		l2.189-1.094v-1.459l-2.918,0.73l1.459-2.554v-2.189l-1.824-1.459l0.73-2.554l0.365-2.554l-0.365-0.365l-3.283,0.73l-8.755,3.283
		v-0.73h0.73v-0.73h0.73l3.283-2.189l5.107-2.918l0.73-1.459l-1.459-0.73l-1.824-2.554h-0.73v-0.73l-0.365-1.459h-4.013l1.094-1.094
		l5.107-2.189l0.73-1.459h-0.73l-0.73,0.365l-4.742,1.824v-0.73h0.73l3.648-2.189l5.107-4.378l1.824-0.73l2.918-0.365l0.365-1.824
		h0.73l2.189-1.824l0.365-2.918l0.73-0.73l1.094-1.824l-0.365-4.013l1.824-2.189l1.094-1.824l2.554-3.648l-0.365-1.094
		L670.599,321.195z M655.642,294.929h3.283v1.094l-3.283,1.094l-1.094-1.094L655.642,294.929z M620.765,153.745h3.283v1.094
		l-3.283,1.094l-1.094-1.094L620.765,153.745z M610.551,212.478l1.459,0.365l-2.189,1.094L610.551,212.478z M558.749,262.821
		l0.365-0.73l1.094,0.365L558.749,262.821z M560.573,147.179l5.837-2.918h0.73v0.73l-1.094,1.094l-4.378,2.189l-4.013,1.459
		l-0.73-0.365L560.573,147.179z M491.991,144.99l3.648-1.824l2.554-0.365l-1.459,0.73l0.438,0.146l-3.356,1.678l-1.824,0.365V144.99
		z M432.528,117.995h0.73l0.365,0.73l-1.459,0.365L432.528,117.995z M422.314,121.643l0.73-0.365h0.73v1.094l-1.459,0.365V121.643z
		 M417.571,124.926h1.094v0.73h-1.094V124.926z M414.653,126.02h1.094l0.365,1.094h-1.824L414.653,126.02z M406.263,154.84h1.094
		v1.094h-1.094V154.84z M402.25,157.393l-0.73,0.365l-0.73-0.365l0.365-1.094h1.094V157.393z M397.507,133.681l2.918-1.094h1.094
		l-0.365,0.73l-2.918,1.094l-1.459,0.365L397.507,133.681z M389.482,163.23h0.73v1.459h-1.094L389.482,163.23z M364.31,134.411
		h1.094l-0.365,1.094l-1.459,0.365L364.31,134.411z M321.264,142.801l-0.834-0.208l-0.261-0.521l0.73-1.094l0.091-0.365h0.638
		l0.365,1.824L321.264,142.801z M324.912,139.518h-0.73v-0.73h0.73V139.518z M161.846,229.259l-0.73,0.73l-2.918,1.824l-3.283,1.094
		l-1.824,1.824l-3.283,1.094l-1.459,1.459l-2.918,1.824l-1.277-0.319l-0.13-0.098l2.501-2.502l4.742-2.918l3.648-2.189l2.189-0.73
		l3.283-2.189h1.459V229.259z M166.224,226.341h-2.189l1.094-1.459h1.824L166.224,226.341z M174.249,220.504v-0.73l0.73-0.365
		l1.094,0.365L174.249,220.504z M193.584,210.289v-1.094l0.73-0.73h0.73l0.365,1.824H193.584z M198.326,208.83l-1.459,0.365
		l-0.365-1.824l1.459-1.094h0.73l0.365,1.459L198.326,208.83z M169.142,238.379h0.73l0.365,1.094l-1.459,0.365L169.142,238.379z
		 M172.79,243.851v2.189l-1.459,0.365l-0.73-1.824l-1.824-0.365v-0.73l3.283-3.283l1.094,0.365l0.365,1.459L172.79,243.851z
		 M174.249,238.014l-2.189,0.365v-0.73l1.459-0.73l0.73-2.189h1.094l0.365,1.459L174.249,238.014z M178.262,235.826h-1.459
		l0.365-2.554l1.459,0.365L178.262,235.826z M180.816,234.002l-1.094-0.365v-1.094l1.824-1.459l0.365,0.73L180.816,234.002z
		 M185.558,237.285v-0.73l0.73-0.365l0.365,0.73L185.558,237.285z M184.828,229.989v0.73l-2.189,0.365v-1.094l1.459-1.094
		l1.824,0.365l0.73,1.094L184.828,229.989z M73.929,356.21l-3.283,2.554l-2.189,0.365l1.094-1.094l3.648-2.554h0.73V356.21z
		 M86.332,357.669l0.365-0.73l0.365,0.73H86.332z M123.542,387.218l-1.459,0.365l0.73-1.459h0.73V387.218z M158.419,528.402
		l-1.459,0.365l0.73-1.459h0.73V528.402z M159.513,599.903l-1.824,0.365v-1.824l0.73-0.73l2.554-0.73l0.365,0.73L159.513,599.903z
		 M204.384,622.156h-1.094l0.365-1.459h0.73V622.156z M222.259,617.778h-1.094l-0.365-1.094l1.094-1.094l0.691,0.23L222.259,617.778
		z M225.177,615.224l-0.929,0.133l-0.531-0.133l1.094-1.459h1.459L225.177,615.224z M239.769,606.469l-1.459,0.365l-0.365-2.918
		l0.365-0.365l1.459,1.459V606.469z M249.619,599.538l-0.365-0.73h0.73L249.619,599.538z M249.254,595.525l-1.459,1.824
		l-3.283,2.189l-0.73,1.459l1.094,0.73l-0.365,1.094l-1.094,0.365v0.73l-1.824,0.365l-0.365-1.459l1.094-1.459l-1.094-1.094
		l0.365-1.824h-0.73l-2.189,1.094l0.365,1.459l-0.365,1.459l-2.918,0.365l-0.365,0.365l-3.283,1.094l-2.554,1.824l-0.73,1.459
		h-1.459l-1.824,0.365l-1.459,1.824l-4.378,2.554l-3.648,1.094v0.73l-1.824,1.459l-1.824,1.094l-0.365,0.73l1.459-0.365l2.554,0.365
		l0.365-1.459h0.73l0.365,1.094h0.73l0.365,1.094l-2.918,1.824h-2.189l-1.094,0.73l-2.918,0.365l-0.365-2.189h-2.554l0.365-1.094
		l1.824-1.824l3.648-1.459l1.459-1.094l2.189-0.73l3.283-2.554l2.918-1.459l4.742-2.918l2.189-1.824l2.918-1.824l1.824-1.094
		l2.918-2.189l3.283-1.824l2.554-2.189l2.189-0.73l2.918-3.283l2.554,0.365l1.094,1.824l0.365,1.824L249.254,595.525z
		 M261.292,588.959l-1.459,0.73l-2.554,2.554l-0.365,2.918l-2.554,0.73l0.73-3.283l-1.459-0.365l-0.73-1.459h-1.094l-0.365-1.094
		l1.824-1.824l3.648-2.918h1.094l-0.73,1.094l-0.365,1.824l0.73,0.365h3.648V588.959z M263.481,589.688l0.365-1.459l1.094,0.365
		l-0.365,1.094l0.081,0.041l-0.081,0.324l-0.73,0.73l-1.824,1.094v-1.459L263.481,589.688z M595.085,443.768h1.094v1.094
		l-1.094,0.365V443.768z M517.383,442.309h-0.73l0.365-1.094L517.383,442.309z M515.559,450.699h0.73v0.73l-0.73,0.365V450.699z
		 M190.301,227.435l0.365-1.094h0.73v0.73L190.301,227.435z M188.477,228.53l0.73-0.365h0.365l0.365,1.094l-1.094,0.73
		L188.477,228.53z M145.43,427.711l-0.365,1.459l-2.866,2.229l-0.618,0.275l-1.259-0.315l-0.365-1.459l1.824-1.459l1.824-1.094
		L145.43,427.711z M289.747,532.779l4.742-2.918l2.189-1.824h0.73v1.459l-2.189,1.459l-4.742,2.918l-1.459,0.73l-0.365-1.094
		L289.747,532.779z M543.063,288.357l0.73,0.73l-0.38,0.759l-0.129-0.388l-2.774,0.308v-0.198l2.421-1.211H543.063z
		 M514.608,289.086v0.186l-0.509,0.185l0.247-0.371H514.608z M561.159,293.105l1.094,1.824l-1.292,0.718l-0.023,0.006l-1.094-1.094
		l-1.459,0.365l-4.742,1.459l1.459-1.459l2.554-0.73l0.73-0.73l-0.071-0.213l1.021-0.511L561.159,293.105z M552.912,286.168h0.233
		l-0.742,0.371l-0.365,1.459l3.648-0.73l3.283-0.73l-0.365,1.094l-4.378,2.189l-7.343,2.235l0.191-1.146l-1.094,0.365v0.73h-0.73
		v0.663l-0.079,0.04l-1.015-0.338l0.73-1.094l0.73-2.189h2.189l1.459,0.73l1.824-2.554L552.912,286.168z M506.583,160.677
		l1.094-0.73l3.648-2.189l7.296-3.283l5.837-2.918l1.824,0.365l1.094,1.824l-3.283,1.824l-2.189,0.73l-1.094,1.094h-2.554
		l-8.39,2.918l-1.459,1.094h-1.824V160.677z M501.476,163.595h0.73l0.365-0.73l0.73,0.365l-1.094,0.365l-0.365,0.73l-1.459,0.73
		L501.476,163.595z M499.652,165.054l0.73,0.365l-1.094,0.365L499.652,165.054z M359.203,144.625h1.094v0.73h-1.459L359.203,144.625
		z M357.744,145.72h0.73v0.73l-1.459,0.365L357.744,145.72z M342.787,191.32l1.824-1.094l1.459-1.459l1.824-0.73l3.648-2.189
		l3.283-1.459l1.824,0.365v0.73l-0.73,0.365l-3.283,1.094l-1.459,1.459l-3.648,1.094l-0.73,0.73l-2.189,1.094l-1.824,0.73V191.32z
		 M340.234,193.144h0.73l-1.459,1.459l-0.365-0.73L340.234,193.144z M335.856,191.32l0.365,0.73h-1.094L335.856,191.32z
		 M327.466,142.072l1.094-0.73h1.459l-0.73,1.459l-1.824,0.365V142.072z M317.616,169.067l1.824-0.365l4.013-3.283h0.365l0.73,1.459
		l-2.189,0.73l-2.918,2.189l-1.824,0.365V169.067z M285.878,169.067h0.73l0.365,1.094l-1.459,0.365L285.878,169.067z
		 M258.518,206.277h1.094v1.094h-1.459L258.518,206.277z M249.033,216.491h1.094v0.73l-1.094,0.365V216.491z M243.197,189.496
		l0.73-0.365h0.73v1.459l-1.459,0.365V189.496z M239.913,193.144h1.094l-0.365,1.094h-1.094L239.913,193.144z M201.922,212.687
		l0.417-0.208v-0.292l0.365-0.438l3.283-1.094l0.365,0.73l-1.459,1.459v0.73l-2.189,0.365v0.73h-1.459l-0.224-0.898L201.922,212.687
		z M207.081,216.126v1.459l-0.73,0.73l-1.459,0.365v-1.459l0.73-1.094H207.081z M201.974,217.585h1.824l0.365,3.648l-0.73,0.73
		l-0.365,1.459l1.824-0.365l1.094-2.554l1.824-0.365l0.73,4.742l0.73,0.365l0.73-1.459l1.824,0.365v0.73L210,226.341l-0.365,3.648
		h-1.094l-0.365-0.73l-2.918-1.459v-2.554l-1.824,0.365v2.189l-1.459-1.094l-1.459-2.189v-4.013l-0.365-1.459L201.974,217.585z
		 M199.421,230.354l1.824-0.73l1.824-1.459h0.365l0.365,1.824l-1.094,1.094l-3.283,0.365V230.354z M199.421,240.933l1.459-1.459
		l4.378-2.189v-0.73l2.189-1.094l1.094-1.094l5.472-1.459l2.189-1.094l0.73,0.365l-1.094,1.459l-2.918,1.824l-1.094,1.824
		l-1.459,0.365l-1.459-0.73v1.459l-1.094-0.365l-2.189,0.365l-0.365,0.73l-1.824,0.365l-2.189,2.918h0.73l0.365,0.73l-2.554,1.094
		l-1.094,1.094l-1.824,1.459l-2.189,1.094l-1.824-0.365v0.73h-1.094l0.365-1.094v-1.824l1.824-0.365l1.094-1.824L199.421,240.933z
		 M196.867,227.435l-2.189,1.094l-1.824,0.365l-1.094-2.189l0.73-1.824l2.554-2.918h1.459L196.867,227.435z M188.112,220.504
		l1.459-1.459h2.554l0.73-1.459h2.189l0.365,0.365l-1.094,1.094l-2.554,1.094l-1.824,1.094l-1.824,0.365V220.504z M173.155,254.795
		h1.459v1.459l-1.459,1.094h-1.459L173.155,254.795z M140.688,282.885l2.189-1.459l3.283-2.918l3.648-1.824l2.189-0.73v-0.73
		l0.73-0.365h1.824l0.365,1.094l-1.094,1.094l-2.189,1.094l-1.459,1.824l-3.283,0.73l-2.554,1.094l-1.824,1.094l-1.824,0.73V282.885
		z M135.216,432.818h2.189l0.73,0.365l-0.288,0.719l-1.507,1.105h-0.395l-1.094-1.094L135.216,432.818z M130.108,424.063
		l1.824-2.189h0.365l-0.365,1.459L130.108,424.063z M132.676,425.99l0.207-0.827l-0.512-0.128l1.75-0.972L132.676,425.99z
		 M115.125,469.064l-0.339,1.694l0.657,0.657l-0.071,0.079l-0.963,0.749l0.013-0.025l-1.094-1.094l-0.591-0.148L115.125,469.064z
		 M106.609,475.37l0.517,0.129v1.094l-2.554,0.365v-0.335L106.609,475.37z M108.806,497.394l-3.283,2.554l-2.189,0.365l1.094-1.094
		l3.648-2.554h0.73V497.394z M121.209,498.853l0.365-0.73l0.365,0.73H121.209z M166.809,564.517l-1.824,0.73l1.824-2.189h0.365
		L166.809,564.517z M172.281,576.191h-1.459l-1.094-1.094l0.365-1.094h2.189l0.73,0.365L172.281,576.191z M177.023,575.826h-1.824
		l-1.459-0.73v-0.73h1.824l1.459,0.73V575.826z M179.942,570.354l-3.283,2.554l-1.459-0.365l-0.365-1.459l1.824-1.459l1.824-1.094
		l1.824,0.365L179.942,570.354z M184.684,602.091h0.73l0.365,1.824h-0.73L184.684,602.091z M189.062,605.739l-1.459,1.094
		l-1.824-0.365l0.73-1.094l2.554-0.73V605.739z M198.547,600.632h-1.094l0.365-1.459h1.094L198.547,600.632z M246.7,569.989
		l-2.918-0.365l-0.73,1.094l-1.824,1.094l-3.283,2.918l-4.013,2.554l-1.824,1.824l-5.837,3.648l-3.648,2.554l-2.918,0.73l-0.73,0.73
		l-4.013,2.554l-2.918,2.554l-2.918,1.824l-5.107,2.554l-2.189,1.824l-1.824,0.73v-1.094l1.459-1.459l2.189-1.094l2.189-1.459
		l1.824-1.094l2.918-2.189l3.283-2.918l1.824-0.73v-0.73l1.094-1.094l2.554-1.094l1.459-1.824l2.554-0.365l0.73-1.824l1.824-0.73
		l1.094-1.094l1.824-1.094l1.094-1.459l2.554-1.094l0.365-0.73l1.824-1.094l4.378-2.918l3.648-1.459l2.189-1.459h2.189l0.365,2.554
		L246.7,569.989z M274.79,556.856h-1.094l3.283-2.554l0.73,0.365L274.79,556.856z M285.005,549.925l-1.824,1.094l-3.648,2.554
		l-1.824,0.73l1.094-1.459l5.837-3.648h0.73L285.005,549.925z M288.288,539.346l-1.094,1.094l-1.824,0.365v-1.094l2.189-1.824
		l1.824-1.824l1.459-0.365l1.459-0.73l2.554-0.73l1.824-1.459l1.824,0.365v1.459l-1.824,0.73l-2.189,1.824L288.288,539.346z
		 M304.339,537.887l-3.283,1.459l-0.73,1.094l-4.378,2.189l-6.566,1.094l1.824-1.824l9.12-5.107l2.554-2.189h1.094l-0.365,1.459
		h-0.73v1.094h1.824L304.339,537.887z M305.433,529.496l-3.283,1.094l0.365-1.094l3.283-1.824l0.73,0.365L305.433,529.496z
		 M313.094,559.41l-3.283,0.73l-1.459,0.73l-0.365-0.73l-2.918-0.365v-1.094l1.459-1.094l2.554-1.459l3.648-1.824h1.094v1.459
		l-2.918,1.459l-0.365,1.824l0.365-0.365l3.283-0.73L313.094,559.41z M314.553,553.938l-0.365-0.73l1.459-1.094l0.365,0.73
		L314.553,553.938z M320.025,516.728l-4.378-0.73l0.73-0.365v-0.73l1.094-1.094l1.459,0.365v-0.73l1.094,0.365V516.728z
		 M333.158,555.397l0.365-1.094l0.365,1.094H333.158z M343.373,503.23l-3.283,1.459l-0.365,0.73l-2.554,1.094l-2.189,1.824
		l-2.189,0.73l-1.824,1.459l-1.824,1.824l-5.107,2.554l-1.824,1.094l-0.73-2.554l1.094-1.824l2.918-1.459l2.918-1.094l2.189-1.824
		l1.459-2.189l1.824-0.73l1.459,0.73l1.824-0.365l1.459-1.824h2.189l1.824-1.824h1.094l0.365,1.459L343.373,503.23z
		 M353.222,551.749l-1.824,0.365v-0.73l1.094-0.73h1.094L353.222,551.749z M383.866,536.063l-0.365,0.73l-1.824,0.365v-1.094
		l1.824-1.094l1.094-1.094h0.73l0.365,1.459L383.866,536.063z M456.826,503.23l-0.365-0.73h0.73L456.826,503.23z M460.838,501.406
		l-1.824,0.365l1.459-1.459h0.73L460.838,501.406z M470.688,473.682l-1.459,0.365v-1.459h1.459V473.682z M472.877,472.952h-0.73
		v-1.459l1.094,0.365L472.877,472.952z M479.443,472.222l-0.365-1.824h1.459l0.365,1.094L479.443,472.222z M483.821,489.368
		l0.365-1.459h0.365l0.365,1.094L483.821,489.368z M484.915,480.613l-0.73,0.365h-2.918v-1.094h3.648V480.613z M487.834,494.84
		l0.365-0.73l0.73,0.365L487.834,494.84z M488.563,480.613l0.365-1.459h0.73l0.365,1.459H488.563z M510.451,473.317l-4.378,2.189
		l-0.73-0.365l0.365-1.094l5.107-2.554l0.73,0.365L510.451,473.317z M516.288,474.411l-1.824,0.365l0.365-1.094h2.189
		L516.288,474.411z M518.477,466.75l-1.824-0.365l-1.094,1.459h-2.189l-2.554,1.094h-1.824v-1.094l2.918-1.094l2.554-1.094
		l1.824-1.094l3.648-1.094h1.824L518.477,466.75z M524.314,447.051l-2.189,0.365l-3.283,1.094l-3.283,0.73l0.365-2.918l0.73-1.459
		l5.472-0.73l0.73-1.824h0.73l1.459,1.094L524.314,447.051z M526.867,443.038h-1.094l0.365-1.094h0.73V443.038z M526.867,438.296
		l-2.554-0.365l-0.365-0.73l2.554-1.094l0.73,0.365L526.867,438.296z M532.704,441.214l-0.73,0.365l-0.365-1.094h1.094V441.214z
		 M534.163,440.12h-1.094l0.365-1.094h0.73V440.12z M536.717,439.755h-1.824l0.73-1.459l1.094,0.365V439.755z M538.176,441.579
		l0.365-0.73l0.73,0.365L538.176,441.579z M552.768,436.107l-1.824,0.365l-2.189,1.459l-1.459,0.365l-1.824-0.73v-0.73l1.094-1.094
		l-0.365-1.824l-2.554-0.365l-4.013,1.824l-0.73-0.73l3.648-2.189l4.013-1.094l1.824-1.094h1.094V431l-1.459,1.094l-0.365,1.094
		l1.094,0.365l1.824,0.73l2.189,0.365V436.107z M556.052,434.283l-1.459,0.73v-0.73l1.094-0.73l-0.365-1.824l0.365-1.459h1.094
		l0.73,3.648L556.052,434.283z M558.24,439.026l0.365-0.73l0.73,0.365L558.24,439.026z M577.94,431.729l-2.554-0.365v-0.73
		l1.094-1.094h1.459l0.73,0.73L577.94,431.729z M592.532,290.916l-0.73-0.365l3.648-2.189l5.837-2.918h0.73v0.73l-1.094,1.094
		l-4.378,2.189L592.532,290.916z M593.626,404.005l0.365-0.73l1.094,0.365L593.626,404.005z M644.698,355.121l0.73-1.459
		l1.459,0.365L644.698,355.121z"/>
	<polygon points="177.388,616.683 179.212,616.319 178.847,617.048 178.483,618.508 179.942,618.508 181.401,617.413 
		183.225,617.048 183.225,617.778 184.32,617.778 185.049,615.224 186.873,614.13 187.238,612.671 185.779,611.941 184.684,610.117 
		182.86,610.117 181.766,610.847 179.577,611.576 178.483,613.035 174.105,615.224 173.375,617.048 173.011,619.237 173.74,619.602 
		171.551,619.967 169.727,621.061 167.539,622.156 167.174,623.25 167.539,624.709 168.633,625.074 170.457,623.615 
		173.375,622.156 173.423,621.967 173.74,621.791 174.105,620.331 175.564,620.331 176.294,619.602 	"/>
	<polygon points="653.089,408.382 659.655,408.382 660.749,408.017 662.573,406.558 662.573,404.734 662.208,404.369 
		659.655,405.099 658.925,402.91 656.737,401.451 654.183,401.451 651.994,402.545 649.44,405.099 649.805,407.653 650.9,408.747 	
		"/>
	<polygon points="127.046,503.23 126.316,502.136 127.046,500.312 126.316,499.582 124.127,500.312 120.115,502.866 
		116.102,505.784 116.102,508.338 116.467,508.702 120.115,508.338 125.222,505.419 	"/>
	<path d="M430.195,522.565l1.824-1.824l-0.73-3.648l1.459-0.73l0.365-1.459h-1.824l-1.094,0.73l-2.554,2.189l-1.824,2.918
		l-4.013,3.283l-2.462,1.094h-0.456l-0.365,0.365l-0.365,1.824h1.094l1.459-0.73l2.918-2.189l1.094,0.365l0.365-0.073l0.365,0.073
		l-0.066-0.133l1.161-0.232L430.195,522.565z M426.912,521.471l1.094,0.365l-1.459,0.73L426.912,521.471z"/>
	<polygon points="617.338,407.288 615.149,407.288 610.042,405.829 608.948,406.193 607.853,407.653 607.853,409.841 
		608.218,410.571 609.677,412.395 612.231,412.76 614.055,412.03 615.879,410.206 619.527,409.112 619.527,407.288 618.797,406.923 
			"/>
	<polygon points="611.136,454.347 612.231,456.171 613.69,455.806 614.784,453.618 611.866,452.523 613.325,449.24 612.96,446.686 
		611.136,444.498 609.312,442.674 604.935,442.674 603.476,443.768 602.746,447.051 601.287,447.416 600.922,450.699 
		602.381,454.347 603.84,456.171 606.394,456.536 608.218,455.806 611.136,453.618 	"/>
	<polygon points="596.544,472.952 597.274,471.493 593.626,471.128 592.167,471.858 588.884,474.776 588.519,477.33 
		589.248,477.694 588.519,479.518 588.154,481.342 588.884,482.072 591.072,480.978 591.802,479.518 590.708,478.789 
		590.343,477.694 592.167,477.694 593.991,476.965 596.909,474.776 596.909,474.046 595.815,473.682 595.815,472.952 	"/>
	<polygon points="678.625,435.378 674.977,435.378 674.247,435.742 673.153,439.39 673.517,441.214 675.341,441.579 677.53,442.674 
		679.719,442.674 681.178,440.85 681.178,438.661 680.813,437.931 	"/>
	<polygon points="411.226,530.226 408.672,530.955 405.754,533.144 399.917,536.063 395.539,537.887 395.539,539.346 
		398.822,538.981 402.835,537.157 402.106,538.981 404.294,538.616 404.659,537.522 404.659,536.063 408.307,533.874 
		414.144,530.955 414.144,529.496 412.32,529.131 	"/>
	<polygon points="552.039,463.467 549.12,463.102 548.391,462.373 544.378,462.008 542.189,462.373 541.459,463.467 
		538.906,465.291 538.541,466.75 540.365,466.386 542.919,467.115 546.931,464.926 549.12,464.562 549.85,465.291 551.674,465.291 	
		"/>
	<polygon points="563.712,459.454 562.618,458.725 561.523,459.09 559.335,462.008 558.787,462.008 558.24,461.278 556.781,461.278 
		554.592,462.373 554.227,463.467 556.052,466.021 557.511,465.656 558.24,463.832 558.97,463.832 559.699,465.656 560.794,465.656 
		562.618,464.197 563.712,462.008 	"/>
	<polygon points="585.236,481.342 583.047,481.342 579.034,482.802 571.738,487.179 571.738,487.909 573.562,488.274 
		579.034,486.085 585.965,482.802 586.33,480.978 585.236,480.613 	"/>
	<polygon points="438.95,546.642 435.302,544.088 432.019,544.088 431.29,544.453 429.466,546.277 428.736,548.831 429.83,551.384 
		430.56,551.384 430.56,552.114 433.843,552.114 437.491,551.749 439.68,552.843 442.234,552.479 442.598,550.29 441.504,548.466 	
		"/>
	<polygon points="133.977,561.234 136.166,558.315 136.166,555.762 135.801,555.032 133.977,554.303 129.964,554.303 
		127.046,556.127 123.033,559.775 123.398,561.599 125.222,562.693 127.775,562.328 132.518,561.963 	"/>
	<polygon points="632.66,417.502 630.836,418.961 630.471,421.515 632.295,422.609 632.66,424.434 633.754,424.798 634.848,423.704 
		635.943,421.88 636.308,419.326 634.848,417.502 	"/>
	<polygon points="660.749,432.824 658.925,432.459 657.466,433.918 657.101,436.837 657.831,438.661 659.29,439.026 
		662.208,437.202 665.127,437.931 665.127,437.202 662.208,434.648 	"/>
	<polygon points="584.871,474.776 584.871,472.587 583.412,472.587 581.952,473.317 581.952,474.411 583.047,474.776 
		582.317,476.235 580.493,476.965 580.858,478.059 582.317,478.424 585.6,479.154 588.154,478.789 588.519,477.33 586.695,476.235 	
		"/>
	<polygon points="658.196,391.966 657.466,392.331 656.372,394.155 656.737,396.344 658.56,398.168 660.749,398.168 
		661.844,397.073 661.844,394.52 660.385,392.696 	"/>
	<polygon points="684.097,309.156 683.367,307.332 681.908,305.508 679.354,305.144 677.53,306.603 675.341,309.521 
		675.341,312.075 676.071,312.804 678.26,314.264 681.178,314.264 681.908,313.899 683.732,312.44 	"/>
	<polygon points="350.304,559.41 348.845,560.869 348.845,563.423 349.939,564.517 352.493,564.517 353.952,562.693 
		354.317,560.869 352.493,559.775 	"/>
	<polygon points="643.968,424.434 645.063,422.609 643.604,421.15 642.509,418.961 641.05,418.232 639.956,419.326 639.591,421.88 
		640.32,422.609 641.415,424.798 642.874,425.163 	"/>
	<polygon points="671.693,416.043 670.964,414.219 669.14,412.395 667.681,411.665 666.951,412.03 664.397,414.949 664.033,417.502 
		664.762,419.326 666.586,420.785 670.234,420.785 671.693,419.326 	"/>
	<polygon points="149.299,632.005 146.38,633.829 147.839,636.018 148.934,635.288 151.487,634.194 154.771,632.005 155.5,630.546 
		151.487,630.546 	"/>
	<polygon points="651.629,259.544 651.629,257.355 650.535,254.072 649.076,253.707 647.252,256.625 646.887,258.449 
		649.076,259.908 651.264,259.908 	"/>
	<polygon points="116.831,673.592 116.467,671.039 114.643,670.674 113.548,671.404 113.548,673.228 114.278,674.322 
		115.007,677.605 117.561,677.97 117.561,675.781 117.196,675.052 	"/>
	<polygon points="551.674,517.093 550.944,517.458 550.215,519.646 551.309,521.106 553.863,521.471 555.322,520.741 
		555.687,518.187 554.592,517.093 	"/>
	<polygon points="614.42,440.485 615.514,439.39 615.879,437.931 614.42,435.378 612.596,435.378 611.136,436.472 610.772,437.931 
		612.96,440.12 	"/>
	<polygon points="686.285,370.443 685.191,371.537 685.191,374.091 685.921,374.821 687.745,375.55 689.569,374.091 
		689.569,371.537 688.474,370.808 	"/>
	<polygon points="543.648,460.549 546.567,459.454 548.755,458.36 548.755,456.901 545.837,456.536 543.283,457.63 541.459,459.454 
		540.73,460.914 542.919,460.914 	"/>
	<polygon points="604.935,473.682 603.476,474.411 603.476,476.965 604.57,478.424 606.759,478.424 607.853,477.33 607.853,475.141 
		606.759,474.046 	"/>
	<polygon points="345.926,568.53 344.832,568.895 343.737,569.989 343.373,572.907 343.737,573.272 345.926,573.272 
		347.021,572.543 348.115,570.354 347.75,568.895 	"/>
	<polygon points="661.844,446.686 659.655,446.322 660.02,448.146 660.385,451.064 662.208,451.064 664.033,449.605 
		664.033,447.416 663.303,446.322 	"/>
	<polygon points="613.69,464.926 610.772,466.021 610.772,467.48 614.42,467.845 617.703,466.386 618.068,464.562 616.608,464.562 	
		"/>
	<polygon points="670.234,232.913 671.329,231.819 671.329,229.63 670.964,229.265 669.14,228.535 667.316,229.63 666.951,231.454 
		667.681,232.548 	"/>
	<polygon points="476.525,502.136 473.971,500.677 472.147,500.312 470.688,501.042 470.323,502.501 472.147,502.866 
		472.877,503.96 474.336,504.325 476.525,502.866 	"/>
	<polygon points="645.063,465.656 644.333,466.386 643.968,468.21 644.698,469.304 646.522,470.034 647.981,468.939 647.981,466.75 
		646.887,465.656 	"/>
	<polygon points="598.368,426.987 597.639,428.811 598.733,429.905 602.381,429.905 602.381,428.446 601.652,426.987 
		599.098,426.622 	"/>
	<polygon points="577.21,473.682 576.845,474.046 575.751,476.965 573.562,478.059 573.197,479.154 575.021,479.518 
		575.751,478.789 578.304,478.059 578.304,476.6 577.94,474.046 	"/>
	<polygon points="565.172,489.368 562.983,491.922 565.536,492.286 566.631,491.192 569.914,489.368 569.914,488.638 
		568.455,488.638 	"/>
	<polygon points="618.432,425.163 617.338,426.257 617.338,428.081 619.527,428.446 620.986,427.352 621.351,425.528 
		619.527,424.798 	"/>
	<polygon points="682.273,283.256 682.273,281.432 681.178,280.337 679.719,279.972 678.989,280.702 678.989,282.891 
		680.449,284.35 	"/>
	<polygon points="572.103,452.158 573.927,451.794 574.292,449.97 572.468,449.97 571.738,451.064 569.914,452.888 568.455,455.077 
		570.279,455.442 571.373,453.982 	"/>
	<polygon points="668.41,381.387 668.045,383.576 669.14,384.67 671.329,384.305 671.693,382.117 670.964,381.387 669.14,381.022 	
		"/>
	<polygon points="635.213,460.549 632.66,463.102 634.484,463.467 639.956,460.914 639.956,460.184 638.132,460.184 	"/>
	<polygon points="643.239,435.013 642.874,437.202 643.604,437.931 645.428,437.931 645.792,437.566 646.157,434.283 
		644.698,433.918 	"/>
	<polygon points="385.69,551.749 385.325,554.303 386.054,555.762 388.243,555.762 388.973,554.303 387.514,552.114 	"/>
	<polygon points="648.711,248.964 648.711,247.14 647.616,246.046 645.792,246.046 645.428,246.411 645.063,248.235 
		645.792,249.329 648.346,249.329 	"/>
	<polygon points="620.621,439.026 620.256,442.309 621.351,442.674 623.175,440.12 623.175,438.296 621.716,437.931 	"/>
	<polygon points="561.159,455.077 564.077,454.347 564.077,453.618 562.618,452.888 560.794,452.523 558.605,453.618 
		558.97,454.712 	"/>
	<polygon points="630.106,252.248 629.741,250.059 627.552,249.694 627.188,250.059 627.188,252.248 627.552,252.977 
		629.376,253.342 	"/>
	<polygon points="541.824,469.669 540.365,471.858 540,473.317 541.459,473.317 541.459,472.587 543.283,471.858 544.013,469.669 
		542.554,469.304 	"/>
	<polygon points="611.136,457.995 611.136,460.184 611.501,460.914 612.596,461.278 613.69,460.184 613.69,457.63 612.231,456.901 	
		"/>
	<polygon points="666.951,424.069 665.857,425.528 666.586,427.352 668.41,427.717 669.14,426.257 668.775,424.434 	"/>
	<polygon points="528.327,476.235 525.773,476.6 525.043,477.33 526.138,478.424 529.056,477.694 529.056,476.965 531.245,476.6 
		531.245,475.506 529.421,475.141 	"/>
	<polygon points="506.074,487.544 504.615,489.003 504.979,489.733 507.533,489.368 509.357,486.814 507.898,486.45 	"/>
	<polygon points="475.795,507.243 474.701,507.973 475.066,509.432 478.714,509.797 477.984,507.608 	"/>
	<polygon points="191.98,625.804 190.886,625.804 190.521,627.628 189.062,628.722 189.792,630.181 191.616,629.816 
		191.251,627.628 192.345,627.263 	"/>
	<polygon points="576.116,480.978 575.386,482.437 576.845,482.072 580.128,480.613 580.493,479.518 577.94,479.154 	"/>
	<polygon points="602.746,419.326 601.652,418.961 599.463,420.421 599.098,422.245 600.922,421.88 602.381,420.785 	"/>
	<polygon points="176.294,644.044 175.929,645.138 176.659,645.503 181.036,642.584 181.401,641.125 180.671,641.125 	"/>
	<polygon points="629.376,422.974 627.552,422.974 626.458,424.434 625.728,425.893 627.552,426.257 629.012,424.434 	"/>
	<polygon points="593.261,461.643 591.802,459.454 590.708,459.454 590.343,459.819 589.978,461.643 590.708,462.373 
		592.532,462.373 	"/>
	<polygon points="158.419,627.992 157.689,629.452 160.243,629.452 161.337,627.628 162.067,626.168 161.337,626.168 	"/>
	<polygon points="683.367,409.841 682.273,410.936 682.637,412.395 684.461,412.76 685.191,411.665 684.826,410.571 	"/>
	<polygon points="363.801,564.152 362.342,565.611 364.166,565.976 366.355,564.882 367.449,563.787 364.896,563.787 	"/>
	<polygon points="651.264,449.97 651.264,451.064 653.818,451.064 654.183,450.699 654.912,448.875 653.453,448.875 	"/>
	<polygon points="466.31,526.943 465.946,528.037 467.405,529.496 468.864,529.861 469.229,528.037 467.77,527.307 	"/>
	<polygon points="183.59,639.301 183.225,641.125 184.684,641.125 186.144,640.396 186.873,638.936 186.144,638.572 	"/>
	<polygon points="415.968,528.037 415.238,530.226 416.698,530.226 418.522,529.496 418.886,528.037 	"/>
	<polygon points="343.737,588.594 343.373,590.053 344.467,591.147 345.561,590.783 345.926,588.959 344.467,588.229 	"/>
	<polygon points="383.136,553.208 382.042,556.127 383.866,556.127 384.96,555.032 384.595,553.573 	"/>
	<polygon points="645.428,442.674 643.604,442.309 642.874,443.403 643.239,444.862 645.063,444.498 	"/>
	<polygon points="438.221,525.483 437.856,523.659 436.032,522.93 435.302,523.294 435.302,524.389 436.032,525.118 	"/>
	<polygon points="548.391,469.304 545.837,469.304 545.107,469.669 545.107,471.128 546.567,471.128 548.391,470.398 	"/>
	<polygon points="622.81,419.326 622.08,420.421 623.904,422.245 624.634,421.88 624.269,419.691 	"/>
	<polygon points="631.93,222.334 631.565,220.51 630.106,220.51 629.741,222.699 631.565,223.063 	"/>
	<polygon points="440.045,528.037 440.41,529.496 442.234,529.861 442.598,528.037 440.774,527.672 	"/>
	<polygon points="195.628,627.628 197.817,626.898 197.817,625.804 195.628,625.804 193.804,627.628 	"/>
	<polygon points="415.968,545.183 414.874,545.912 415.238,547.371 416.698,547.736 417.427,546.642 417.062,545.547 	"/>
	<polygon points="164.985,614.859 164.62,615.224 164.62,616.683 166.444,616.319 167.174,614.859 	"/>
	<polygon points="661.114,401.086 661.114,402.545 662.938,402.545 663.303,401.086 661.479,400.721 	"/>
	<polygon points="164.985,644.044 165.35,644.773 166.444,644.408 166.444,642.22 164.985,641.855 	"/>
	<polygon points="399.187,539.711 398.822,540.805 399.917,541.17 402.106,539.346 400.646,538.981 	"/>
	<polygon points="523.219,505.784 522.855,506.149 523.219,507.608 525.043,507.973 524.679,506.149 	"/>
	<polygon points="553.133,493.746 553.133,494.84 556.416,494.475 556.416,493.746 553.863,493.381 	"/>
	<polygon points="637.767,455.442 637.853,455.484 637.402,455.806 633.754,457.266 633.389,455.806 631.565,456.171 
		631.565,458.725 630.836,460.184 632.66,459.819 638.132,457.63 639.956,455.806 640.685,454.347 639.956,453.982 	"/>
	<polygon points="663.303,376.645 662.208,376.645 661.844,377.009 661.479,378.469 662.938,378.833 663.668,377.739 	"/>
	<polygon points="609.312,434.648 610.772,433.918 611.136,432.459 609.677,432.094 608.948,433.553 	"/>
	<polygon points="670.234,312.075 671.693,311.71 672.058,309.521 671.329,309.521 670.599,309.886 	"/>
	<polygon points="355.411,561.599 355.411,563.787 356.505,563.787 356.87,561.599 355.776,561.234 	"/>
	<polygon points="117.196,424.798 116.831,425.163 116.467,426.622 117.926,426.987 118.291,425.163 	"/>
	<polygon points="214.233,601.727 213.504,601.727 212.409,603.186 211.68,605.01 213.868,603.186 	"/>
	<polygon points="565.901,466.386 565.536,468.21 566.995,468.21 567.36,466.75 	"/>
	<polygon points="331.699,584.216 333.158,584.946 333.523,583.122 332.429,582.757 	"/>
	<polygon points="269.318,576.92 267.859,576.555 267.494,576.92 266.764,578.379 267.859,578.379 	"/>
	<polygon points="365.99,551.749 364.166,551.749 363.801,552.843 365.625,553.208 	"/>
	<polygon points="613.69,427.352 615.149,427.352 615.514,425.893 614.055,425.528 	"/>
	<rect x="670.759" y="337.041" transform="matrix(0.2425 -0.9701 0.9701 0.2425 180.938 907.3277)" width="1.504" height="1.504"/>
	<polygon points="187.603,638.207 188.332,638.572 190.156,636.748 188.332,636.748 	"/>
	<polygon points="686.285,444.498 685.921,446.322 687.015,446.322 687.745,444.862 686.65,444.133 	"/>
	<polygon points="612.596,420.056 612.96,421.15 614.42,421.15 614.42,419.691 612.96,419.326 	"/>
	<polygon points="622.81,415.313 624.269,415.678 624.634,413.854 623.175,413.854 	"/>
	<polygon points="172.646,646.232 172.281,647.692 173.375,647.692 174.105,646.232 173.011,645.868 	"/>
	<polygon points="162.067,584.216 162.067,585.675 163.161,586.04 163.526,584.216 	"/>
	<polygon points="373.651,560.869 375.475,560.139 375.475,559.41 373.286,559.41 	"/>
	<polygon points="621.351,467.48 622.81,467.48 622.81,466.386 621.351,465.656 	"/>
	<polygon points="635.943,434.648 637.402,434.648 637.767,433.553 635.943,433.189 	"/>
	<polygon points="670.964,405.464 670.964,406.193 672.423,406.923 672.788,405.464 671.693,405.099 	"/>
	<polygon points="242.688,596.619 242.688,598.079 243.782,597.714 244.147,596.255 243.052,596.255 	"/>
	<polygon points="318.931,571.813 318.931,572.907 320.755,573.272 320.39,571.813 	"/>
	<polygon points="536.352,468.21 537.447,468.21 537.811,466.75 536.352,466.386 	"/>
	<polygon points="471.783,527.307 473.242,527.672 473.607,526.578 471.783,526.213 	"/>
	<polygon points="615.149,470.763 616.244,470.763 616.973,469.304 615.514,469.304 	"/>
	<polygon points="173.74,640.76 173.74,640.031 172.281,639.666 171.916,640.031 172.646,641.125 	"/>
	<polygon points="137.26,630.546 138.355,630.911 138.719,629.452 137.625,629.452 	"/>
	<polygon points="495.495,518.187 496.589,518.187 496.954,517.093 495.859,516.728 	"/>
	<polygon points="652.359,415.678 653.453,416.043 653.818,414.584 652.724,414.584 	"/>
	<polygon points="645.428,405.464 644.333,405.464 644.333,406.923 645.792,406.558 	"/>
	<polygon points="150.758,601.727 150.028,602.456 150.028,604.28 151.123,602.821 	"/>
	<polygon points="449.53,536.063 450.989,536.792 450.989,535.333 449.894,535.333 	"/>
	<polygon points="487.469,522.2 488.928,522.93 488.928,521.835 487.469,521.471 	"/>
	<polygon points="669.869,360.958 670.599,360.958 671.329,359.864 669.869,359.499 	"/>
	<polygon points="140.908,597.349 140.908,598.808 141.638,598.808 142.003,597.349 	"/>
	<polygon points="377.299,563.787 378.394,563.787 378.394,562.693 377.299,562.328 	"/>
	<polygon points="591.802,418.597 593.261,418.961 593.261,417.867 591.802,417.867 	"/>
	<polygon points="149.663,604.28 148.934,604.645 148.934,605.739 150.028,605.739 	"/>
	<polygon points="275.884,579.839 277.344,579.109 276.614,578.379 275.884,578.744 	"/>
	<rect x="527.962" y="470.398" width="1.824" height="0.73"/>
	<polygon points="605.664,466.021 604.205,465.656 604.205,466.75 605.3,466.75 	"/>
	<polygon points="620.621,435.742 619.162,435.378 619.162,436.472 620.256,436.472 	"/>
	<polygon points="629.376,232.548 628.282,232.183 628.282,233.643 629.012,233.643 	"/>
	<polygon points="642.144,233.278 642.509,232.183 641.415,231.819 641.415,233.278 	"/>
	<polygon points="156.595,587.864 155.5,589.323 156.959,588.959 	"/>
	<rect x="272.236" y="573.637" width="1.094" height="1.094"/>
	<rect x="276.979" y="564.882" width="1.094" height="1.094"/>
	<polygon points="132.518,541.535 132.153,542.629 132.883,542.994 133.247,541.535 	"/>
	<rect x="484.186" y="522.93" width="1.094" height="1.094"/>
	<rect x="696.135" y="408.017" width="1.094" height="1.094"/>
	<polygon points="678.625,408.747 678.989,407.653 678.26,407.288 677.895,408.747 	"/>
	<polygon points="176.659,638.207 177.753,637.842 176.659,636.748 	"/>
	<polygon points="177.753,605.375 177.388,606.834 178.847,605.739 	"/>
	<polygon points="344.832,563.787 345.926,563.787 345.926,563.058 344.832,562.693 	"/>
	<polygon points="406.118,549.925 406.848,549.925 407.213,548.831 406.118,548.831 	"/>
	<polygon points="439.68,522.93 438.586,522.93 438.586,523.659 439.68,524.024 	"/>
	<polygon points="568.455,459.454 568.455,460.549 569.184,460.549 569.549,459.454 	"/>
	<polygon points="682.273,436.837 683.367,436.837 683.367,436.107 682.273,435.742 	"/>
	<polygon points="160.243,679.429 161.337,679.429 161.337,678.7 160.607,678.335 	"/>
	<polygon points="193.44,623.979 194.899,624.344 194.899,623.615 193.804,623.615 	"/>
	<polygon points="176.659,607.563 176.294,608.293 177.388,608.658 177.388,607.563 	"/>
	<polygon points="434.573,538.251 435.667,538.251 435.667,537.522 434.938,537.157 	"/>
	<polygon points="571.373,475.87 570.643,475.87 571.008,477.33 	"/>
	<polygon points="664.033,442.309 664.762,442.674 665.127,441.579 664.033,441.579 	"/>
	<polygon points="610.042,418.232 609.312,417.867 608.948,418.961 610.042,418.961 	"/>
	<polygon points="499.143,516.363 500.237,516.728 500.237,515.998 499.507,515.634 	"/>
	<rect x="328.416" y="509.797" width="0.73" height="1.094"/>
	<polygon points="570.643,482.437 571.008,483.531 571.738,482.802 	"/>
	<polygon points="677.895,401.451 678.989,401.816 678.989,401.086 678.26,400.721 	"/>
	<rect x="664.397" y="382.846" width="1.094" height="0.73"/>
	<rect x="114.278" y="379.928" width="1.094" height="0.73"/>
	<polygon points="671.693,259.179 672.423,258.449 671.329,258.084 	"/>
	<polygon points="279.168,579.474 279.533,578.379 278.803,578.379 	"/>
	<polygon points="622.81,464.562 623.175,463.467 622.445,463.467 	"/>
	<polygon points="647.981,451.064 649.076,451.429 649.076,450.699 648.346,450.699 	"/>
	<polygon points="631.565,443.768 632.66,443.768 631.93,443.038 	"/>
	<polygon points="670.964,436.837 672.058,436.472 670.964,436.107 	"/>
	<polygon points="650.9,424.434 650.535,425.163 651.629,425.163 	"/>
	<rect x="197.088" y="633.1" width="0.73" height="0.73"/>
	<rect x="129.235" y="600.267" width="0.73" height="0.73"/>
	<rect x="359.059" y="568.895" width="0.73" height="0.73"/>
	<rect x="418.886" y="550.29" width="0.73" height="0.73"/>
	<polygon points="433.478,540.805 434.573,540.805 433.843,540.44 	"/>
	<rect x="117.926" y="514.904" width="0.73" height="0.73"/>
	<rect x="516.653" y="509.797" width="0.73" height="0.73"/>
	<polygon points="532.339,469.304 533.434,469.669 532.704,468.939 	"/>
	<rect x="112.454" y="446.686" width="0.73" height="0.73"/>
	<rect x="623.175" y="426.622" width="0.73" height="0.73"/>
	<polygon points="660.749,413.489 661.479,413.125 660.749,412.395 	"/>
	<rect x="667.681" y="409.841" width="0.73" height="0.73"/>
	<rect x="692.852" y="402.181" width="0.73" height="0.73"/>
	<polygon points="624.634,287.998 625.364,287.633 624.634,286.904 	"/>
	<polygon points="346.291,556.127 345.561,556.127 345.926,556.856 	"/>
	<polygon points="441.869,538.981 442.598,539.346 442.234,538.616 	"/>
	<polygon points="548.026,497.758 548.755,498.123 548.391,497.394 	"/>
	<polygon points="517.383,496.664 518.112,496.664 517.383,495.934 	"/>
	<polygon points="629.012,440.485 629.741,440.12 629.012,439.755 	"/>
	<polygon points="678.625,426.987 679.354,427.352 678.989,426.622 	"/>
	<polygon points="665.492,394.155 664.762,393.79 664.762,394.52 	"/>
</g>
</svg>
